<?xml version="1.0" encoding="utf-8" ?><svg xmlns="http://www.w3.org/2000/svg" xmlns:xlink="http://www.w3.org/1999/xlink" width="148" height="146" viewBox="0 0 148 146"><path fill="#EA473A" d="M69.603 0L78.6377 0L80.0469 0L81.1846 0C81.846 3.11278 82.3017 5.22462 82.3748 8.38532C84.0659 8.68826 88.4222 9.60177 89.9954 10.1403C91.3396 7.66957 94.0043 3.43338 96.1817 1.79773C96.5512 1.49599 96.7474 1.26154 97.3222 1.40545C99.9619 2.0663 104.859 4.14467 107.037 5.49584C108.556 7.52751 107.019 13.9283 105.54 15.9132C105.579 15.86 105.012 16.3718 104.916 16.4866L105.202 16.7919L106.056 16.56C108.027 17.7221 109.003 19.0785 111.603 20.4763C112.734 19.8598 118.383 16.9987 118.951 16.5747L121.163 15.0624C125.116 18.6137 126.365 18.5823 129.682 23.5382C128.684 26.2891 126.32 30.5602 123.85 32.0499C123.959 33.1839 128.027 38.3662 129.059 39.5621C131.002 38.5916 132.181 38.6391 134.347 38.4236C135.415 37.989 137.874 37.5975 139.101 37.3654C141.43 39.4792 143.645 46.0302 143.516 49.2433L142.688 49.5302C141.031 51.4754 137.596 53.3788 135.616 54.952C135.934 57.5211 136.616 60.1436 136.851 62.6226C139.459 63.0059 146.843 63.4414 146.96 66.7168C147.084 70.1703 146.834 74.282 146.663 77.7693C142.86 78.4869 139.773 79.1789 136.018 79.9617C136.297 82.0159 135.425 84.7479 135.589 87.7599L137.436 88.6515C139.539 89.5438 143.435 90.9317 144.559 92.876C145.003 95.3017 141.634 103.994 139.546 104.669C138.411 104.708 137.506 104.484 136.395 104.263C129.835 103.749 128.125 102.187 125.62 109.766C128.219 113.857 129.866 113.763 131.174 118.895C129.662 123.153 125.323 126.925 121.326 128.855C117.919 127.435 115.67 125.365 112.709 123.205C111.386 123.74 108.216 124.996 107.953 126.144C106.712 131.581 112.87 137.636 104.642 140.848C101.876 141.928 98.5401 143.064 95.2433 141.811C91.4225 140.359 90.9592 135.732 88.4187 134.375C88.0348 134.17 84.9457 134.897 84.104 135.08C84.0056 138.003 83.1226 143.354 81.8487 146L80.7648 146L67.4135 146L65.2633 146C64.4076 142.034 64.2425 139.042 63.9825 135.026C62.1837 134.694 60.8416 134.898 59.0657 135.114C56.9078 139.483 54.9951 142.247 50.7483 144.75C46.5394 142.578 41.0172 141.325 37.9277 137.7C37.5703 133.849 38.5733 130.272 39.8747 126.713C38.4991 125.761 37.1492 124.566 35.8651 123.481C32.9576 126.487 30.693 128.481 26.4913 129.517C25.2193 129.091 24.116 128.489 23.0806 127.649C13.4165 119.807 14.6778 118.43 21.3769 109.664C20.5153 108.168 19.33 106.583 18.3783 104.982C15.7921 105.461 13.3239 106.29 10.7546 106.836C9.20911 107.224 7.90731 106.531 7.01202 105.249C5.04965 102.439 1.6013 95.3052 3.85538 92.2547C5.0672 90.9792 9.26099 88.424 10.962 87.9246C11.5097 85.6141 10.8956 83.3998 11.3785 81.5327C11.3334 80.9986 11.2924 80.9153 11.0875 80.4355C10.3179 79.896 8.57732 79.7754 7.52023 79.5894C6.03921 79.3459 4.17515 79.3502 2.89641 78.7246C2.19926 77.9324 2.39391 78.1691 2.17644 77.0619C2.1127 73.206 2.02677 69.7092 2.14117 65.8453C3.47331 63.3437 6.71719 64.0917 9.07391 62.9767C10.7337 62.1914 11.1888 57.4958 11.824 55.2218C9.40137 53.8714 7.56654 52.7923 5.29115 51.2147C4.72468 50.7131 4.26131 49.9706 3.82475 49.3403C3.33826 45.7139 5.46609 38.5931 9.69686 37.7578L9.36457 38.1763C8.72839 38.717 8.70046 39.239 8.53261 40.0485L8.86717 40.5272L9.25015 40.0201L9.85435 40.2748C10.7624 39.8892 11.8096 40.4074 12.9451 40.5435C13.365 39.9789 13.2104 39.7281 13.7047 39.095C14.4525 39.3199 15.6817 39.6485 16.3721 39.914C16.5805 39.6826 17.1086 38.7997 17.3032 38.4903C17.5781 38.5615 18.2303 38.7751 18.4404 38.7135C19.9071 38.2841 21.8366 35.0022 22.662 33.7273C22.6788 33.4208 22.6927 32.6591 22.5252 32.4098C20.3974 29.2425 18.6127 26.9418 17.2427 23.3127C18.7755 21.4342 21.9649 18.0382 23.6886 16.6009C29.2852 11.9342 31.1276 18.8599 35.755 19.7038C36.8687 19.9069 40.7516 17.1903 42.1981 16.7581C42.5633 16.649 42.5222 15.9722 42.5301 15.5827L42.4301 15.3258C41.9519 14.4322 41.5845 12.2059 41.4366 11.1958C41.1066 9.54617 41.0262 6.60705 41.0655 4.91888C42.9686 3.96727 48.4813 1.19151 50.4592 1.2702C55.0023 0.833003 56.3966 6.93913 58.4002 9.93232C58.6006 10.2317 59.0713 10.1341 59.3863 10.1297C61.4889 8.60988 63.2714 9.69906 65.9079 7.13503C66.2958 5.513 66.916 3.70749 67.4244 2.10224L67.49 5.65119C67.825 4.63281 67.567 4.4913 68.1793 3.23614L68.8322 3.01907C68.989 2.63552 69.4723 0.526333 69.603 0Z"/><path fill="#030203" d="M137.436 88.6515C139.539 89.5438 143.435 90.9317 144.559 92.876C145.003 95.3017 141.634 103.994 139.546 104.669C138.411 104.708 137.506 104.484 136.395 104.263C129.835 103.749 128.125 102.187 125.62 109.766C128.219 113.857 129.866 113.763 131.174 118.895C129.662 123.153 125.323 126.925 121.326 128.855C117.919 127.435 115.67 125.365 112.709 123.205C111.386 123.74 108.216 124.996 107.953 126.144C106.712 131.581 112.87 137.636 104.642 140.848C101.876 141.928 98.5401 143.064 95.2433 141.811C91.4225 140.359 90.9592 135.732 88.4187 134.375C88.0348 134.17 84.9457 134.897 84.104 135.08C84.0056 138.003 83.1226 143.354 81.8487 146L80.7648 146L67.4135 146L65.2633 146C64.4076 142.034 64.2425 139.042 63.9825 135.026C62.1837 134.694 60.8416 134.898 59.0657 135.114C56.9078 139.483 54.9951 142.247 50.7483 144.75C46.5394 142.578 41.0172 141.325 37.9277 137.7C37.5703 133.849 38.5733 130.272 39.8747 126.713C38.4991 125.761 37.1492 124.566 35.8651 123.481C32.9576 126.487 30.693 128.481 26.4913 129.517C25.2193 129.091 24.116 128.489 23.0806 127.649C13.4165 119.807 14.6778 118.43 21.3769 109.664C20.5153 108.168 19.33 106.583 18.3783 104.982C15.7921 105.461 13.3239 106.29 10.7546 106.836C9.20911 107.224 7.90731 106.531 7.01202 105.249C5.04965 102.439 1.6013 95.3052 3.85538 92.2547C5.74381 93.4832 4.52169 93.7528 5.08325 94.5033C6.41175 97.4775 7.46227 100.309 8.46702 103.398C8.71368 104.157 9.26617 104.346 10.0088 104.328L9.88607 103.636C12.6773 102.598 17.5559 101.354 20.5561 100.497C22.8044 103.646 25.1255 107.029 26.9845 110.42C24.2073 113.661 22.9852 115.57 20.8254 119.191C22.7296 121.33 25.0482 123.372 27.054 125.565C30.3676 123.238 32.5957 121.575 35.6568 118.976C38.9325 121.184 42.2263 123.366 45.5379 125.52C44.4713 128.064 43.3983 133.318 42.7769 136.136C45.4877 137.345 48.3113 138.349 51.0675 139.572C52.9189 137.064 55.4529 132.981 56.5983 130.2C60.4508 130.799 64.2819 131.529 68.0851 132.388C68.3229 136.597 68.7104 138.964 69.6433 143.084L78.428 143.244C79.4222 139.164 79.7668 136.541 80.1615 132.415C84.0978 131.529 87.873 130.909 91.8062 130.12C93.3386 133.657 94.7475 136.311 97.2426 139.248C100.049 138.229 102.833 137.151 105.593 136.012C104.835 133.812 103.867 128.467 103.011 125.513C105.356 123.553 109.755 120.946 112.619 118.781C115.128 121.267 118.608 123.636 121.505 125.792C122.825 123.668 125.71 121.295 127.481 118.74C125.498 115.414 123.734 113.269 121.257 110.338C123.168 106.922 125.514 103.886 127.472 100.356C130.426 100.958 135.446 101.932 138.064 103.069C138.87 101.288 141.492 95.8362 141.454 94.2908C141.482 93.8284 141.705 93.4034 141.888 92.9681C140.257 91.895 138.583 90.887 136.872 89.9463L137.436 88.6515Z"/><path fill="#EADFE1" d="M3.85538 92.2547C5.74381 93.4832 4.52169 93.7528 5.08325 94.5033C6.41175 97.4775 7.46227 100.309 8.46702 103.398C8.71368 104.157 9.26617 104.346 10.0088 104.328C12.4301 104.191 17.3405 102.862 19.8293 102.046C21.6827 104.726 23.5117 107.423 25.3163 110.136C23.774 112.199 19.9816 117.089 18.9818 119.109C21.5348 121.758 24.1365 124.531 26.7775 127.08C29.2827 125.814 33.6627 122.714 35.6003 120.69C38.1299 122.265 41.334 124.266 43.6135 126.168C42.3113 130.272 41.8985 132.785 41.2521 136.999C44.6322 138.039 48.3769 140 51.7389 141.358C53.1586 138.186 55.7475 134.874 57.3636 131.743C60.4518 132.519 63.567 133.184 66.703 133.737C66.9713 135.778 67.8446 143.236 68.4152 144.908L68.4864 145.212C67.6328 145.512 67.8621 145.304 67.4135 146L65.2633 146C64.4076 142.034 64.2425 139.042 63.9825 135.026C62.1837 134.694 60.8416 134.898 59.0657 135.114C56.9078 139.483 54.9951 142.247 50.7483 144.75C46.5394 142.578 41.0172 141.325 37.9277 137.7C37.5703 133.849 38.5733 130.272 39.8747 126.713C38.4991 125.761 37.1492 124.566 35.8651 123.481C32.9576 126.487 30.693 128.481 26.4913 129.517C25.2193 129.091 24.116 128.489 23.0806 127.649C13.4165 119.807 14.6778 118.43 21.3769 109.664C20.5153 108.168 19.33 106.583 18.3783 104.982C15.7921 105.461 13.3239 106.29 10.7546 106.836C9.20911 107.224 7.90731 106.531 7.01202 105.249C5.04965 102.439 1.6013 95.3052 3.85538 92.2547Z"/><path fill="#EADFE1" d="M128.145 102.012C131.299 102.803 134.475 103.507 137.667 104.125L136.395 104.263C129.835 103.749 128.125 102.187 125.62 109.766C128.219 113.857 129.866 113.763 131.174 118.895C129.662 123.153 125.323 126.925 121.326 128.855C117.919 127.435 115.67 125.365 112.709 123.205C111.386 123.74 108.216 124.996 107.953 126.144C106.712 131.581 112.87 137.636 104.642 140.848C101.876 141.928 98.5401 143.064 95.2433 141.811C91.4225 140.359 90.9592 135.732 88.4187 134.375C88.0348 134.17 84.9457 134.897 84.104 135.08C84.0056 138.003 83.1226 143.354 81.8487 146L80.7648 146L80.9247 145.398C79.7904 144.71 78.0997 145.558 76.6816 145.092L76.5244 144.627L79.5823 144.554C80.2941 141.499 80.9081 136.964 81.4287 133.762C84.4597 132.966 87.4726 132.172 90.5849 131.799C91.7114 133.111 94.9965 138.768 96.6023 140.974C99.2046 140.339 103.741 137.95 107.207 136.902C106.218 133.431 105.342 129.7 104.489 126.188C107.435 123.893 109.399 122.653 112.603 120.771C115.681 122.757 117.87 125.269 121.432 126.7C123.01 125.419 127.477 120.61 129.111 118.931C126.442 115.365 126.768 114.016 122.825 110.267C124.398 107.842 126.446 104.11 128.145 102.012Z"/><path fill="#C5C0C1" d="M137.436 88.6515C139.539 89.5438 143.435 90.9317 144.559 92.876C145.003 95.3017 141.634 103.994 139.546 104.669C138.411 104.708 137.506 104.484 136.395 104.263L137.667 104.125C138.219 104.257 138.491 104.372 139.018 104.164C140.244 101.594 141.781 96.9827 142.803 94.1499C142.627 93.4406 142.512 93.5211 141.888 92.9681C140.257 91.895 138.583 90.887 136.872 89.9463L137.436 88.6515Z"/><path fill="#ECEAED" d="M68.4152 144.908C69.3222 144.432 75.1157 144.618 76.5244 144.627L76.6816 145.092C78.0997 145.558 79.7904 144.71 80.9247 145.398L80.7648 146L67.4135 146C67.8621 145.304 67.6328 145.512 68.4864 145.212L68.4152 144.908Z"/><path fill="#313031" d="M78.6377 0L80.0469 0L81.1846 0C81.846 3.11278 82.3017 5.22462 82.3748 8.38532C84.0659 8.68826 88.4222 9.60177 89.9954 10.1403C91.3396 7.66957 94.0043 3.43338 96.1817 1.79773C96.5512 1.49599 96.7474 1.26154 97.3222 1.40545C99.9619 2.0663 104.859 4.14467 107.037 5.49584C108.556 7.52751 107.019 13.9283 105.54 15.9132C105.579 15.86 105.012 16.3718 104.916 16.4866L105.202 16.7919L106.056 16.56C108.027 17.7221 109.003 19.0785 111.603 20.4763C112.734 19.8598 118.383 16.9987 118.951 16.5747L121.163 15.0624C125.116 18.6137 126.365 18.5823 129.682 23.5382C128.684 26.2891 126.32 30.5602 123.85 32.0499L123.259 31.9567C123.316 31.3087 123.051 31.0546 122.664 30.5142C124.442 28.3141 126.029 26.2336 127.408 23.7595L121.189 17.5952C117.446 19.6378 115.831 21.0841 112.537 23.7486C109.154 21.9505 106.225 19.4729 102.915 17.6233C103.94 13.9949 104.76 10.6459 105.367 6.91836C102.674 5.74633 99.8041 4.55459 97.1915 3.24187C95.3128 6.94199 93.6944 7.6443 91.8617 12.6563C87.9302 11.866 84.144 11.3477 80.227 10.6183C80.005 9.62704 79.8889 7.98419 79.7833 6.92473C79.7269 5.34102 78.9419 1.82085 78.6377 0Z"/><path fill="#CCB8B9" d="M80.0469 0L81.1846 0C81.846 3.11278 82.3017 5.22462 82.3748 8.38532C84.0659 8.68826 88.4222 9.60177 89.9954 10.1403C91.3396 7.66957 94.0043 3.43338 96.1817 1.79773C95.6984 2.82559 91.6511 10.2303 91.0579 11.0525C88.8266 11.0704 83.4619 10.5317 81.5167 9.09841C80.9554 8.68485 80.99 5.55961 80.7523 4.71907C80.7714 3.9878 80.1769 0.99546 80.0469 0Z"/><path fill="#B7B3B3" d="M107.037 5.49584C108.556 7.52751 107.019 13.9283 105.54 15.9132C105.579 15.86 105.012 16.3718 104.916 16.4866L105.202 16.7919L106.056 16.56C108.027 17.7221 109.003 19.0785 111.603 20.4763C112.734 19.8598 118.383 16.9987 118.951 16.5747C118.716 17.6421 113.481 21.4082 112.333 22.0805C109.188 19.3627 107.827 19.0049 104.374 16.9751C104.67 15.7854 107.064 5.86129 107.037 5.49584Z"/><path fill="#1A1616" d="M78.6377 0L80.0469 0C80.1769 0.99546 80.7714 3.9878 80.7523 4.71907C80.6517 5.9203 80.4855 8.2706 80.5905 9.39287C80.3325 8.37887 80.1951 7.88506 79.7833 6.92473C79.7269 5.34102 78.9419 1.82085 78.6377 0Z"/><path fill="#CCB8B9" d="M133.841 54.4666C135.738 53.6733 141.422 49.794 142.688 49.5302C141.031 51.4754 137.596 53.3788 135.616 54.952C135.934 57.5211 136.616 60.1436 136.851 62.6226C139.459 63.0059 146.843 63.4414 146.96 66.7168C147.084 70.1703 146.834 74.282 146.663 77.7693C142.86 78.4869 139.773 79.1789 136.018 79.9617C136.297 82.0159 135.425 84.7479 135.589 87.7599L137.436 88.6515L136.872 89.9463C136.102 89.6342 134.674 88.8662 133.878 88.4708C133.947 86.4588 134.225 84.8755 134.543 82.8898L133.461 84.1953C133.79 82.0404 134.055 79.7549 134.345 77.5838C137.623 77.4207 141.845 76.6552 145.024 75.9089C145.054 73.3131 145.291 70.7151 145.153 68.1157C145.1 67.1252 144.999 67.2052 144.172 66.876C141.556 66.3207 139.114 65.8046 136.465 65.3936C136.47 64.7047 136.641 64.4613 136.957 63.8395C134.134 62.9346 134.146 57.1781 133.841 54.4666Z"/><defs><linearGradient id="gradient_0" gradientUnits="userSpaceOnUse" x1="142.09399" y1="78.412254" x2="137.83994" y2="71.391304"><stop offset="0" stop-color="#000100"/><stop offset="1" stop-color="#1E0401"/></linearGradient></defs><path fill="url(#gradient_0)" d="M146.065 65.626L146.408 65.8868C146.723 68.8259 146.608 74.39 146.519 77.3882C144.834 77.3876 143.227 77.6919 141.577 77.9269C137.492 78.5084 135.206 78.2703 134.543 82.8898L133.461 84.1953C133.79 82.0404 134.055 79.7549 134.345 77.5838C137.623 77.4207 141.845 76.6552 145.024 75.9089C145.054 73.3131 145.291 70.7151 145.153 68.1157C145.1 67.1252 144.999 67.2052 144.172 66.876C145.41 66.8425 145.467 66.5822 146.065 65.626Z"/><path fill="#1A1616" d="M136.957 63.8395C140.247 64.3601 142.805 64.8232 146.065 65.626C145.467 66.5822 145.41 66.8425 144.172 66.876C141.556 66.3207 139.114 65.8046 136.465 65.3936C136.47 64.7047 136.641 64.4613 136.957 63.8395Z"/><path fill="#1A1616" d="M3.82475 49.3403C3.33826 45.7139 5.46609 38.5931 9.69686 37.7578L9.36457 38.1763C8.72839 38.717 8.70046 39.239 8.53261 40.0485L8.86717 40.5272L9.25015 40.0201L9.85435 40.2748C8.61915 43.1024 7.70176 45.5458 6.65341 48.4335C9.57803 50.6243 12.4631 52.4456 15.8854 53.7983C15.1228 57.2086 14.5527 60.6767 13.8132 64.1038C13.8671 63.4267 13.9773 62.833 13.6884 62.2167C13.1196 62.4793 12.9552 63.1066 12.612 63.7657C11.6837 64.6192 4.72709 64.4296 2.14117 65.8453C3.47331 63.3437 6.71719 64.0917 9.07391 62.9767C10.7337 62.1914 11.1888 57.4958 11.824 55.2218C9.40137 53.8714 7.56654 52.7923 5.29115 51.2147C4.72468 50.7131 4.26131 49.9706 3.82475 49.3403Z"/><path fill="#EADFE1" d="M6.61729 49.7875C9.03227 51.2532 12.0197 52.8268 14.0531 54.694C13.833 57.7731 12.7756 61.186 12.612 63.7657C11.6837 64.6192 4.72709 64.4296 2.14117 65.8453C3.47331 63.3437 6.71719 64.0917 9.07391 62.9767C10.7337 62.1914 11.1888 57.4958 11.824 55.2218C9.40137 53.8714 7.56654 52.7923 5.29115 51.2147C5.96263 50.8861 6.20725 50.4038 6.61729 49.7875Z"/><path fill="#CCB8B9" d="M3.82475 49.3403C3.33826 45.7139 5.46609 38.5931 9.69686 37.7578L9.36457 38.1763C8.72839 38.717 8.70046 39.239 8.53261 40.0485C8.04252 41.4546 4.88864 48.0114 5.28843 48.9378C5.32974 49.0335 5.35589 49.0565 5.41558 49.1272L6.61729 49.7875C6.20725 50.4038 5.96263 50.8861 5.29115 51.2147C4.72468 50.7131 4.26131 49.9706 3.82475 49.3403Z"/><path fill="#030203" d="M50.4592 1.2702C55.0023 0.833003 56.3966 6.93913 58.4002 9.93232C58.6006 10.2317 59.0713 10.1341 59.3863 10.1297C61.4889 8.60988 63.2714 9.69906 65.9079 7.13503C66.2958 5.513 66.916 3.70749 67.4244 2.10224L67.49 5.65119C67.825 4.63281 67.567 4.4913 68.1793 3.23614L68.8322 3.01907C68.4158 5.45089 67.9861 7.96894 67.9254 10.4429C65.4133 10.9454 58.8865 12.4046 56.5901 12.5903C54.8897 9.19306 53.0892 6.51209 51.0374 3.32795C48.3528 4.49618 45.4779 5.81163 42.7671 6.87101C42.9051 7.51658 43.4057 9.6653 43.4291 10.2018C42.4753 11.945 42.5014 13.4152 42.4301 15.3258C41.9519 14.4322 41.5845 12.2059 41.4366 11.1958C41.1066 9.54617 41.0262 6.60705 41.0655 4.91888C42.9686 3.96727 48.4813 1.19151 50.4592 1.2702Z"/><path fill="#B7B3B3" d="M50.4592 1.2702C55.0023 0.833003 56.3966 6.93913 58.4002 9.93232C58.6006 10.2317 59.0713 10.1341 59.3863 10.1297L59.7618 10.2338L58.4173 10.7064C57.7839 11.1415 58.0461 11.0816 57.3448 11.0574C56.7376 10.5665 51.97 2.55255 51.6896 1.76814L51.6646 1.69628L51.2811 1.8245L50.4592 1.2702Z"/><path fill="#A9A6A7" d="M67.4244 2.10224L67.49 5.65119C67.3672 6.74045 67.3032 8.3579 66.737 9.22799C65.2153 10.3392 60.2719 11.0508 58.4173 10.7064L59.7618 10.2338L59.3863 10.1297C61.4889 8.60988 63.2714 9.69906 65.9079 7.13503C66.2958 5.513 66.916 3.70749 67.4244 2.10224Z"/><path fill="#A9A6A7" d="M41.0655 4.91888C42.9686 3.96727 48.4813 1.19151 50.4592 1.2702L51.2811 1.8245C48.7574 3.13852 43.2905 5.08473 41.6398 6.35663C41.6035 7.17169 41.5255 10.7065 41.4366 11.1958C41.1066 9.54617 41.0262 6.60705 41.0655 4.91888Z"/><path fill="#C5C0C1" d="M17.2427 23.3127C18.7755 21.4342 21.9649 18.0382 23.6886 16.6009C29.2852 11.9342 31.1276 18.8599 35.755 19.7038C36.8687 19.9069 40.7516 17.1903 42.1981 16.7581C42.5633 16.649 42.5222 15.9722 42.5301 15.5827C42.8587 16.7738 43.0019 16.5983 42.6602 17.6332L41.5564 18.631C39.512 19.9149 37.5033 21.2549 35.5326 22.6494C33.5321 20.6671 30.2163 18.6611 27.8346 16.6856L27.5334 17.8984C25.8816 18.1228 23.1404 21.7592 21.5535 23.1789C21.2331 23.5742 20.8755 23.8319 20.9854 24.2752C21.51 26.3918 24.6765 29.495 25.471 31.0863L24.7028 31.6005C24.8366 32.0623 25.0502 32.6582 25.0126 33.1216C23.8686 32.7328 23.6248 31.7423 23.1221 31.5713C23.1313 32.2599 23.1662 32.9389 23.0449 33.6171L22.662 33.7273C22.6788 33.4208 22.6927 32.6591 22.5252 32.4098C20.3974 29.2425 18.6127 26.9418 17.2427 23.3127Z"/><path fill="#4C4E51" d="M24.7028 31.6005C23.0733 30.9363 19.2452 25.2695 19.6344 23.4141C19.7792 22.7239 20.2949 22.2577 20.7521 21.7865C21.028 22.8079 20.8192 22.4741 21.5535 23.1789C21.2331 23.5742 20.8755 23.8319 20.9854 24.2752C21.51 26.3918 24.6765 29.495 25.471 31.0863L24.7028 31.6005Z"/><path fill="#313031" d="M20.7521 21.7865C21.9944 20.5582 25.4589 16.8625 27.0968 16.1429C27.2035 16.096 27.6756 16.5515 27.8346 16.6856L27.5334 17.8984C25.8816 18.1228 23.1404 21.7592 21.5535 23.1789C20.8192 22.4741 21.028 22.8079 20.7521 21.7865Z"/><path fill="#313031" d="M139.101 37.3654C141.43 39.4792 143.645 46.0302 143.516 49.2433L142.688 49.5302C141.422 49.794 135.738 53.6733 133.841 54.4666C134.146 57.1781 134.134 62.9346 136.957 63.8395C136.641 64.4613 136.47 64.7047 136.465 65.3936C136.101 65.3803 134.755 65.1617 134.329 65.1017C133.837 61.3086 133.157 57.5424 132.29 53.8172C135.404 52.0761 138.638 50.1846 141.293 47.7976C140.482 44.9238 138.942 42.7395 138.201 40.2081L138.499 39.2522L139.101 39.0123L139.101 37.3654Z"/><path fill="#949293" d="M139.101 37.3654C141.43 39.4792 143.645 46.0302 143.516 49.2433C143.432 48.9056 143.348 48.6762 143.174 48.3697C141.479 45.3891 140.137 42.2683 139.101 39.0123L139.101 37.3654Z"/><path fill="#313031" d="M14.2308 87.4458C14.909 86.929 14.9857 86.6397 15.3036 85.8655C15.4673 86.8891 15.6338 88.1625 15.9293 89.1324C13.1772 90.4112 9.37504 92.9677 6.68883 94.6761C7.99114 97.4756 9.21422 100.615 9.88607 103.636L10.0088 104.328C9.26617 104.346 8.71368 104.157 8.46702 103.398C7.46227 100.309 6.41175 97.4775 5.08325 94.5033C4.52169 93.7528 5.74381 93.4832 3.85538 92.2547C5.0672 90.9792 9.26099 88.424 10.962 87.9246C11.6266 88.4893 12.901 88.9096 13.7507 88.9731C14.3968 88.1817 14.258 88.5519 14.2308 87.4458Z"/><path fill="#CCB8B9" d="M10.962 87.9246C11.6266 88.4893 12.901 88.9096 13.7507 88.9731C12.4398 89.2804 5.45507 93.4432 5.08325 94.5033C4.52169 93.7528 5.74381 93.4832 3.85538 92.2547C5.0672 90.9792 9.26099 88.424 10.962 87.9246Z"/><defs><linearGradient id="gradient_1" gradientUnits="userSpaceOnUse" x1="127.61979" y1="41.437492" x2="130.4758" y2="35.488075"><stop offset="0" stop-color="#293338"/><stop offset="1" stop-color="#443F42"/></linearGradient></defs><path fill="url(#gradient_1)" d="M123.259 31.9567L123.85 32.0499C123.959 33.1839 128.027 38.3662 129.059 39.5621C131.002 38.5916 132.181 38.6391 134.347 38.4236C135.415 37.989 137.874 37.5975 139.101 37.3654L139.101 39.0123L138.499 39.2522L138.201 40.2081C137.241 39.8274 129.121 41.8846 127.599 42.2497C126.378 40.5038 123.465 36.5253 122.617 34.766C123.105 34.2997 123.138 33.4649 123.225 32.7998L123.259 31.9567Z"/><path fill="#CCB8B9" d="M123.259 31.9567L123.85 32.0499C123.959 33.1839 128.027 38.3662 129.059 39.5621C131.002 38.5916 132.181 38.6391 134.347 38.4236C132.501 39.1765 130.175 40.0607 128.459 40.979C125.89 38.1554 124.913 34.6364 123.225 32.7998L123.259 31.9567Z"/><path fill="#030203" d="M25.471 31.0863C26.1534 31.902 26.4358 31.97 26.5593 32.9161C25.8191 34.5595 21.7644 40.826 20.5363 42.5494C17.6349 41.4174 16.0279 41.0243 12.9451 40.5435C13.365 39.9789 13.2104 39.7281 13.7047 39.095C14.4525 39.3199 15.6817 39.6485 16.3721 39.914C16.5805 39.6826 17.1086 38.7997 17.3032 38.4903C17.5781 38.5615 18.2303 38.7751 18.4404 38.7135C19.9071 38.2841 21.8366 35.0022 22.662 33.7273L23.0449 33.6171C23.1662 32.9389 23.1313 32.2599 23.1221 31.5713C23.6248 31.7423 23.8686 32.7328 25.0126 33.1216C25.0502 32.6582 24.8366 32.0623 24.7028 31.6005L25.471 31.0863Z"/><path fill="#CCB8B9" d="M22.662 33.7273L23.0449 33.6171C23.1662 32.9389 23.1313 32.2599 23.1221 31.5713C23.6248 31.7423 23.8686 32.7328 25.0126 33.1216C23.3849 35.7357 21.431 38.4299 19.901 40.9513C18.8945 40.6748 17.2949 40.2848 16.3721 39.914C16.5805 39.6826 17.1086 38.7997 17.3032 38.4903C17.5781 38.5615 18.2303 38.7751 18.4404 38.7135C19.9071 38.2841 21.8366 35.0022 22.662 33.7273Z"/><defs><linearGradient id="gradient_2" gradientUnits="userSpaceOnUse" x1="10.07496" y1="82.602859" x2="14.005248" y2="81.77491"><stop offset="0" stop-color="#040000"/><stop offset="1" stop-color="#302E2E"/></linearGradient></defs><path fill="url(#gradient_2)" d="M8.47236 77.2645C10.208 77.4323 11.9482 77.5485 13.6907 77.6127C14.1874 80.3836 14.9211 83.1096 15.3036 85.8655C14.9857 86.6397 14.909 86.929 14.2308 87.4458C14.258 88.5519 14.3968 88.1817 13.7507 88.9731C12.901 88.9096 11.6266 88.4893 10.962 87.9246C11.5097 85.6141 10.8956 83.3998 11.3785 81.5327C11.3334 80.9986 11.2924 80.9153 11.0875 80.4355C10.3179 79.896 8.57732 79.7754 7.52023 79.5894C8.08949 79.0579 8.67564 78.5448 9.27777 78.0509L8.26512 77.796L8.47236 77.2645Z"/><path fill="#C5C0C1" d="M11.3785 81.5327C12.2436 80.9732 11.9091 81.118 13.0372 81.1334C13.2665 82.8012 13.6331 85.9386 14.2308 87.4458C14.258 88.5519 14.3968 88.1817 13.7507 88.9731C12.901 88.9096 11.6266 88.4893 10.962 87.9246C11.5097 85.6141 10.8956 83.3998 11.3785 81.5327Z"/><path fill="#B7B3B3" d="M9.27777 78.0509C11.375 78.4514 12.8993 78.6191 13.0372 81.1334C11.9091 81.118 12.2436 80.9732 11.3785 81.5327C11.3334 80.9986 11.2924 80.9153 11.0875 80.4355C10.3179 79.896 8.57732 79.7754 7.52023 79.5894C8.08949 79.0579 8.67564 78.5448 9.27777 78.0509Z"/><path fill="#030203" d="M12.612 63.7657C12.9552 63.1066 13.1196 62.4793 13.6884 62.2167C13.9773 62.833 13.8671 63.4267 13.8132 64.1038C13.7369 64.5236 13.6896 65.297 13.3879 65.3463C10.4221 65.8303 5.88411 66.3243 3.03586 66.8334C2.89182 68.6961 2.83904 70.7541 2.6259 72.5724C2.15076 76.626 5.34727 76.6853 8.47236 77.2645L8.26512 77.796L9.27777 78.0509C8.67564 78.5448 8.08949 79.0579 7.52023 79.5894C6.03921 79.3459 4.17515 79.3502 2.89641 78.7246C2.19926 77.9324 2.39391 78.1691 2.17644 77.0619C2.1127 73.206 2.02677 69.7092 2.14117 65.8453C4.72709 64.4296 11.6837 64.6192 12.612 63.7657Z"/><path fill="#CCB8B9" d="M2.17644 77.0619C4.05712 77.1376 6.36246 77.5231 8.26512 77.796L9.27777 78.0509C8.67564 78.5448 8.08949 79.0579 7.52023 79.5894C6.03921 79.3459 4.17515 79.3502 2.89641 78.7246C2.19926 77.9324 2.39391 78.1691 2.17644 77.0619Z"/><path fill="#030203" d="M27.5334 17.8984L27.8346 16.6856C30.2163 18.6611 33.5321 20.6671 35.5326 22.6494C37.5033 21.2549 39.512 19.9149 41.5564 18.631L42.5637 19.146C40.1927 20.744 38.0806 22.2885 35.6255 23.8003C33.703 22.649 29.8177 19.4492 27.5334 17.8984Z"/><path fill="#33393C" d="M133.461 84.1953L134.543 82.8898C134.225 84.8755 133.947 86.4588 133.878 88.4708C134.674 88.8662 136.102 89.6342 136.872 89.9463C138.583 90.887 140.257 91.895 141.888 92.9681C141.705 93.4034 141.482 93.8284 141.454 94.2908C138.683 92.474 135.38 90.3484 132.403 88.8961C132.729 87.3375 133.039 85.727 133.461 84.1953Z"/><path fill="#313031" d="M42.4301 15.3258C42.5014 13.4152 42.4753 11.945 43.4291 10.2018C43.9439 12.0341 44.8633 15.9932 45.4745 17.488C44.9089 17.8169 43.0615 18.9426 42.5637 19.146L41.5564 18.631L42.6602 17.6332C43.0019 16.5983 42.8587 16.7738 42.5301 15.5827L42.4301 15.3258Z"/><path fill="#33393C" d="M122.664 30.5142C123.051 31.0546 123.316 31.3087 123.259 31.9567L123.225 32.7998C123.138 33.4649 123.105 34.2997 122.617 34.766L121.621 33.3799L121.414 32.6117C121.485 31.7135 122.068 31.1994 122.664 30.5142Z"/><path fill="#313031" d="M121.621 33.3799L123.259 31.9567L123.225 32.7998C123.138 33.4649 123.105 34.2997 122.617 34.766L121.621 33.3799Z"/><path fill="#FEFEFE" d="M52.5326 28.6376C54.5885 27.0161 61.5272 24.679 64.2126 24.0101C65.0411 24.2869 64.8929 24.3625 65.4384 25.2026C67.1307 27.0712 67.4503 31.632 68.2238 33.8831C69.9697 33.5827 77.8706 33.8595 79.6701 34.0771L82.08 26.9015L83.3446 23.7601L87.3631 25.0275C90.536 25.8923 96.695 27.9614 99.0602 30.2838C104.26 33.3241 109.739 38.4495 113.111 43.4535C113.5 44.0302 114.452 45.3705 114.632 45.9506C115.035 46.7198 115.45 47.1412 115.258 47.964C114.948 49.2976 111.875 51.3501 110.754 51.9278C108.564 53.3762 106.355 54.7964 104.128 56.1883C104.103 57.6013 103.843 65.1404 104.272 65.982L104.731 66.2572L106.662 66.3799C105.936 66.4883 103.003 66.9147 102.919 67.3961C102.626 69.0895 102.998 71.6579 102.722 73.5499C102.684 77.2228 103.58 83.7982 101.598 87.1096L101.327 88.0431L101.894 89.038C101.412 90.0553 100.41 92.4037 99.7617 93.1892C99.3299 93.6578 99.0499 93.9103 98.7941 94.4931C98.6383 94.148 98.4174 94.0733 98.0743 93.8202C97.3835 94.6993 94.0339 98.7678 93.1838 99.5018L93.57 100.013C92.5838 101.042 91.1686 102.452 90.3009 103.511C90.7218 104.205 91.1977 104.885 91.3885 105.669C92.6406 107.864 95.4822 114.566 92.3144 115.965C82.6614 120.229 70.6838 120.566 60.588 117.709C59.251 117.314 54.5919 115.674 54.0381 114.75L54.0663 113.948C54.4626 113.463 56.8817 105.498 57.2682 104.292C55.7492 102.363 51.1106 98.1154 49.1073 96.204C46.5322 98.9185 42.3733 102.267 39.0191 103.928C28.6288 91.887 26.2368 81.6315 26.2288 66.193C27.874 63.3307 38.5641 65.1769 41.5716 65.5908L42.024 65.3282C42.6503 64.3974 42.7095 56.3084 41.9629 55.2397C39.4815 53.267 31.3959 49.7173 33.3937 46.2085C37.4711 39.0475 44.8506 31.8086 52.5326 28.6376Z"/><path fill="#FEFEFE" d="M43.1439 54.1383C42.6321 57.4638 42.4353 63.6359 44.1363 66.5891C43.6695 69.8879 43.8957 80.5887 44.1738 83.9387C44.3996 84.9939 44.6342 86.0472 44.8776 87.0985C45.9102 87.1859 46.5691 87.2301 47.578 87.4782L46.6964 87.6476L46.8056 88.0632L45.5104 88.5184C47.7397 88.6443 50.7995 88.5256 52.7671 88.7572C58.8034 88.7038 64.1766 87.1579 69.7418 84.7774C71.1327 84.1824 72.3844 83.2754 73.6355 82.6749C78.8303 86.165 85.4113 88.6068 91.7012 88.7484C93.2941 88.5985 99.7896 88.044 100.933 88.9293L101.327 88.0431L101.894 89.038C101.412 90.0553 100.41 92.4037 99.7617 93.1892C99.3299 93.6578 99.0499 93.9103 98.7941 94.4931C98.6383 94.148 98.4174 94.0733 98.0743 93.8202C97.3835 94.6993 94.0339 98.7678 93.1838 99.5018L93.57 100.013C92.5838 101.042 91.1686 102.452 90.3009 103.511C90.7218 104.205 91.1977 104.885 91.3885 105.669C92.6406 107.864 95.4822 114.566 92.3144 115.965C82.6614 120.229 70.6838 120.566 60.588 117.709C59.251 117.314 54.5919 115.674 54.0381 114.75L54.0663 113.948C54.4626 113.463 56.8817 105.498 57.2682 104.292C55.7492 102.363 51.1106 98.1154 49.1073 96.204C46.5322 98.9185 42.3733 102.267 39.0191 103.928C28.6288 91.887 26.2368 81.6315 26.2288 66.193C27.874 63.3307 38.5641 65.1769 41.5716 65.5908L42.024 65.3282C42.6503 64.3974 42.7095 56.3084 41.9629 55.2397C42.2632 55.0528 42.8616 54.4201 43.1439 54.1383Z"/><path fill="#FEFEFE" d="M43.1439 54.1383C42.6321 57.4638 42.4353 63.6359 44.1363 66.5891C43.6695 69.8879 43.8957 80.5887 44.1738 83.9387C44.3996 84.9939 44.6342 86.0472 44.8776 87.0985C45.9102 87.1859 46.5691 87.2301 47.578 87.4782L46.6964 87.6476L46.8056 88.0632L45.5104 88.5184C46.6521 91.0528 47.3623 92.1703 48.8874 94.4947C48.5834 94.8092 48.2593 95.0748 48.1296 95.4788L47.975 94.3424C47.3934 94.33 46.9307 94.5293 46.3089 94.5551C45.2802 95.447 40.6257 99.3653 40.1539 100.197C39.2177 100.281 39.1668 99.966 38.5887 99.3488C30.8893 87.405 29.8968 81.9674 28.2473 67.9781L28.2252 67.2373C27.5671 66.7888 27.1897 67.0083 26.2288 66.193C27.874 63.3307 38.5641 65.1769 41.5716 65.5908L42.024 65.3282C42.6503 64.3974 42.7095 56.3084 41.9629 55.2397C42.2632 55.0528 42.8616 54.4201 43.1439 54.1383Z"/><path fill="#6F6E6F" d="M43.1439 54.1383C42.6321 57.4638 42.4353 63.6359 44.1363 66.5891C43.6695 69.8879 43.8957 80.5887 44.1738 83.9387C44.3996 84.9939 44.6342 86.0472 44.8776 87.0985C45.9102 87.1859 46.5691 87.2301 47.578 87.4782L46.6964 87.6476L46.8056 88.0632L45.5104 88.5184C46.6521 91.0528 47.3623 92.1703 48.8874 94.4947C48.5834 94.8092 48.2593 95.0748 48.1296 95.4788L47.975 94.3424C47.3934 94.33 46.9307 94.5293 46.3089 94.5551C43.4077 91.9516 41.5791 87.2054 41.4922 83.2595C41.4264 80.276 42.4687 69.8622 41.4836 67.7557L42.1945 67.5086C42.8368 67.4136 42.9193 67.3624 43.478 67.0256C43.454 66.3392 43.2636 66.3629 42.68 65.7748C42.2282 65.7572 42.1079 65.7445 41.6745 65.6207L41.5716 65.5908L42.024 65.3282C42.6503 64.3974 42.7095 56.3084 41.9629 55.2397C42.2632 55.0528 42.8616 54.4201 43.1439 54.1383Z"/><path fill="#C5C0C1" d="M41.4836 67.7557L42.1945 67.5086C43.1195 75.6395 41.0858 84.396 45.794 91.5485C46.3527 92.3971 47.1563 93.8311 47.975 94.3424C47.3934 94.33 46.9307 94.5293 46.3089 94.5551C43.4077 91.9516 41.5791 87.2054 41.4922 83.2595C41.4264 80.276 42.4687 69.8622 41.4836 67.7557Z"/><path fill="#4C4E51" d="M26.2288 66.193C27.874 63.3307 38.5641 65.1769 41.5716 65.5908L41.6745 65.6207C42.1079 65.7445 42.2282 65.7572 42.68 65.7748C43.2636 66.3629 43.454 66.3392 43.478 67.0256C42.9193 67.3624 42.8368 67.4136 42.1945 67.5086L41.4836 67.7557C36.5772 67.3311 33.0853 67.1986 28.2252 67.2373C27.5671 66.7888 27.1897 67.0083 26.2288 66.193Z"/><path fill="#33393C" d="M26.2288 66.193C27.1897 67.0083 27.5671 66.7888 28.2252 67.2373L28.2473 67.9781C29.8968 81.9674 30.8893 87.405 38.5887 99.3488C39.1668 99.966 39.2177 100.281 40.1539 100.197C40.6257 99.3653 45.2802 95.447 46.3089 94.5551C46.9307 94.5293 47.3934 94.33 47.975 94.3424L48.1296 95.4788C48.2593 95.0748 48.5834 94.8092 48.8874 94.4947C49.8531 95.699 53.666 99.7197 54.8881 100.537C56.1615 101.68 57.0216 102.694 58.1383 103.977C58.1454 104.277 58.1434 104.987 58.1812 105.247C59.0824 105.392 60.2833 106.773 61.1429 107.335C64.3602 109.425 69.2905 113.451 72.3444 115.931C72.6695 116.161 72.9978 116.386 73.329 116.607C74.2843 116.416 74.8845 115.613 75.746 114.867C76.2382 115.49 76.3496 115.686 77.0859 115.941C78.4828 115.996 82.9436 115.2 84.5523 114.947C84.8788 114.78 89.1158 113.843 89.7754 113.682C91.1466 113.579 91.5529 113.78 92.1695 112.519C91.5222 110.97 90.8243 109.39 90.331 107.789C90.5315 106.556 89.5843 106.287 89.9727 104.281C90.4715 104.523 90.654 105.035 90.9044 105.537L91.3885 105.669C92.6406 107.864 95.4822 114.566 92.3144 115.965C82.6614 120.229 70.6838 120.566 60.588 117.709C59.251 117.314 54.5919 115.674 54.0381 114.75L54.0663 113.948C54.4626 113.463 56.8817 105.498 57.2682 104.292C55.7492 102.363 51.1106 98.1154 49.1073 96.204C46.5322 98.9185 42.3733 102.267 39.0191 103.928C28.6288 91.887 26.2368 81.6315 26.2288 66.193Z"/><path fill="#EADFE1" d="M58.1812 105.247C59.0824 105.392 60.2833 106.773 61.1429 107.335C64.3602 109.425 69.2905 113.451 72.3444 115.931C72.6695 116.161 72.9978 116.386 73.329 116.607C74.2843 116.416 74.8845 115.613 75.746 114.867C76.2382 115.49 76.3496 115.686 77.0859 115.941C78.4828 115.996 82.9436 115.2 84.5523 114.947C85.8282 115.715 86.6865 114.167 88.4113 115.846C78.5278 118.296 69.5357 118.948 59.6906 115.843C58.0924 115.339 57.4097 115.024 56.0279 114.048C55.879 110.666 57.55 108.275 58.1812 105.247Z"/><path fill="#FEFEFE" d="M59.2887 107.701C61.0105 108.672 68.7768 114.543 69.5161 115.975L69.3009 116.251L68.4436 116.204C65.375 116.051 60.1241 114.39 57.2808 113.125C57.7699 111.573 58.6609 109.197 59.2887 107.701Z"/><path fill="#C5C0C1" d="M28.2473 67.9781C29.8968 81.9674 30.8893 87.405 38.5887 99.3488L37.7889 100.547C32.3345 95.0246 28.1945 83.6184 27.7314 75.9626C27.5828 73.5072 27.9944 70.4558 28.2473 67.9781Z"/><path fill="#EADFE1" d="M46.3089 94.5551C46.9307 94.5293 47.3934 94.33 47.975 94.3424L48.1296 95.4788C46.0059 97.4127 43.9275 99.2911 41.5311 100.884C41.2516 101.07 40.8072 101.336 40.5758 101.553L40.1539 100.197C40.6257 99.3653 45.2802 95.447 46.3089 94.5551Z"/><path fill="#C5C0C1" d="M92.1695 112.519C92.3787 115.122 90.8547 115.433 88.4113 115.846C86.6865 114.167 85.8282 115.715 84.5523 114.947C84.8788 114.78 89.1158 113.843 89.7754 113.682C91.1466 113.579 91.5529 113.78 92.1695 112.519Z"/><path fill="#ECEAED" d="M38.5887 99.3488C39.1668 99.966 39.2177 100.281 40.1539 100.197L40.5758 101.553C40.1744 101.831 39.8641 101.933 39.4134 102.111C38.4533 101.758 38.4958 101.488 37.7889 100.547L38.5887 99.3488Z"/><defs><linearGradient id="gradient_3" gradientUnits="userSpaceOnUse" x1="63.70528" y1="109.74202" x2="88.492035" y2="88.27446"><stop offset="0" stop-color="#BDBDBD"/><stop offset="1" stop-color="#E3CAC9"/></linearGradient></defs><path fill="url(#gradient_3)" d="M93.3391 96.4264C94.0927 96.3646 94.3344 96.0717 94.8532 95.5824C94.731 97.6206 91.5032 98.9332 91.0591 101.236L93.1838 99.5018L93.57 100.013C92.5838 101.042 91.1686 102.452 90.3009 103.511C90.7218 104.205 91.1977 104.885 91.3885 105.669L90.9044 105.537C90.654 105.035 90.4715 104.523 89.9727 104.281C89.5843 106.287 90.5315 106.556 90.331 107.789C90.8243 109.39 91.5222 110.97 92.1695 112.519C91.5529 113.78 91.1466 113.579 89.7754 113.682C89.1158 113.843 84.8788 114.78 84.5523 114.947C82.9436 115.2 78.4828 115.996 77.0859 115.941C76.3496 115.686 76.2382 115.49 75.746 114.867C74.8845 115.613 74.2843 116.416 73.329 116.607C72.9978 116.386 72.6695 116.161 72.3444 115.931C69.2905 113.451 64.3602 109.425 61.1429 107.335C60.2833 106.773 59.0824 105.392 58.1812 105.247C58.1434 104.987 58.1454 104.277 58.1383 103.977C57.0216 102.694 56.1615 101.68 54.8881 100.537L55.7847 99.3172C60.4921 103.677 67.9463 109.582 73.3527 113.069C78.5333 109.083 83.8088 105.128 88.6722 100.754C90.208 99.3726 91.7297 97.6904 93.3391 96.4264Z"/><path fill="#FEFEFE" d="M87.5225 106.379C88.3069 105.654 88.2958 105.327 89.1152 105.242C89.7071 105.827 89.8678 106.936 90.331 107.789C90.8243 109.39 91.5222 110.97 92.1695 112.519C91.5529 113.78 91.1466 113.579 89.7754 113.682C89.1158 113.843 84.8788 114.78 84.5523 114.947C82.9436 115.2 78.4828 115.996 77.0859 115.941C77.2802 115.159 83.0536 110.974 84.0635 110.226C85.7034 108.911 86.3282 108.318 87.5685 106.67L87.5225 106.379Z"/><path fill="#EADFE1" d="M87.5225 106.379C88.3069 105.654 88.2958 105.327 89.1152 105.242C89.7071 105.827 89.8678 106.936 90.331 107.789C90.8243 109.39 91.5222 110.97 92.1695 112.519C91.5529 113.78 91.1466 113.579 89.7754 113.682C90.0125 113.066 88.822 108.772 88.7519 107.027C88.3756 106.594 88.3397 106.732 87.5685 106.67L87.5225 106.379Z"/><path fill="#6F6E6F" d="M93.1838 99.5018L93.57 100.013C92.5838 101.042 91.1686 102.452 90.3009 103.511C90.7218 104.205 91.1977 104.885 91.3885 105.669L90.9044 105.537C90.654 105.035 90.4715 104.523 89.9727 104.281C89.5843 106.287 90.5315 106.556 90.331 107.789C89.8678 106.936 89.7071 105.827 89.1152 105.242C88.2958 105.327 88.3069 105.654 87.5225 106.379L87.5685 106.67C86.3282 108.318 85.7034 108.911 84.0635 110.226C83.0536 110.974 77.2802 115.159 77.0859 115.941C76.3496 115.686 76.2382 115.49 75.746 114.867C74.8845 115.613 74.2843 116.416 73.329 116.607C72.9978 116.386 72.6695 116.161 72.3444 115.931C72.6777 115.577 72.5978 115.402 72.687 114.819C72.8298 114.895 72.9537 114.938 73.1181 114.946C74.3122 115.001 89.4337 102.831 91.0591 101.236L93.1838 99.5018Z"/><path fill="#ECEAED" d="M82.4497 109.843L84.0635 110.226C83.0536 110.974 77.2802 115.159 77.0859 115.941C76.3496 115.686 76.2382 115.49 75.746 114.867C77.6069 113.296 80.4119 111.373 82.4497 109.843Z"/><path fill="#C5C0C1" d="M82.4497 109.843C83.5761 108.713 85.8173 106.217 87.5225 106.379L87.5685 106.67C86.3282 108.318 85.7034 108.911 84.0635 110.226L82.4497 109.843Z"/><path fill="#848284" d="M62.2377 106.865C64.6463 109.183 70.3496 112.272 72.687 114.819C72.5978 115.402 72.6777 115.577 72.3444 115.931C69.2905 113.451 64.3602 109.425 61.1429 107.335L62.2377 106.865Z"/><path fill="#848284" d="M58.1383 103.977C59.8264 104.854 60.8685 105.477 62.2377 106.865L61.1429 107.335C60.2833 106.773 59.0824 105.392 58.1812 105.247C58.1434 104.987 58.1454 104.277 58.1383 103.977Z"/><path fill="#CCB8B9" d="M101.327 88.0431L101.894 89.038C101.412 90.0553 100.41 92.4037 99.7617 93.1892C99.3299 93.6578 99.0499 93.9103 98.7941 94.4931C98.6383 94.148 98.4174 94.0733 98.0743 93.8202C97.3835 94.6993 94.0339 98.7678 93.1838 99.5018L91.0591 101.236C91.5032 98.9332 94.731 97.6206 94.8532 95.5824C94.3344 96.0717 94.0927 96.3646 93.3391 96.4264C94.4826 95.2353 97.8863 91.5314 98.0114 90.0616C97.0998 89.1931 93.3417 89.0331 91.7012 88.7484C93.2941 88.5985 99.7896 88.044 100.933 88.9293L101.327 88.0431Z"/><path fill="#4C4E51" d="M101.327 88.0431L101.894 89.038C101.412 90.0553 100.41 92.4037 99.7617 93.1892C99.3299 93.6578 99.0499 93.9103 98.7941 94.4931C98.6383 94.148 98.4174 94.0733 98.0743 93.8202C99.1952 91.909 99.8423 91.065 100.933 88.9293L101.327 88.0431Z"/><path fill="#B7B3B3" d="M45.5104 88.5184C47.7397 88.6443 50.7995 88.5256 52.7671 88.7572C50.9538 89.0724 49.6534 89.2263 47.7703 89.0973C49.3572 92.0277 53.2041 97.4355 55.7847 99.3172L54.8881 100.537C53.666 99.7197 49.8531 95.699 48.8874 94.4947C47.3623 92.1703 46.6521 91.0528 45.5104 88.5184Z"/><path fill="#313031" d="M57.5264 99.7468C57.2279 99.6137 57.1843 99.4348 57.0303 99.1296C57.9138 96.7873 62.7604 94.0676 64.9556 92.5459C68.406 90.1221 71.8312 87.6626 75.2306 85.1678C80.651 87.9479 84.9344 90.862 89.4287 94.9163C90.2055 95.478 90.9854 95.912 91.3205 96.7976C91.3158 97.8942 90.346 98.2509 89.3477 98.221C89.0487 98.233 88.2699 98.2832 88.0193 98.2456C86.8249 100.954 86.0961 102.326 83.1034 103.749C82.1999 104.178 81.019 103.813 80.5358 104.048C77.8342 105.367 76.6034 106.235 73.333 104.795C73.2341 104.752 73.1367 104.705 73.041 104.654L72.3534 105.182L72.192 105.31C71.0841 105.434 70.6368 104.847 69.5546 104.418C66.2529 103.11 62.8341 101.913 59.6973 100.235L57.5264 99.7468Z"/><path fill="#B7B3B3" d="M57.5264 99.7468C57.2279 99.6137 57.1843 99.4348 57.0303 99.1296C57.9138 96.7873 62.7604 94.0676 64.9556 92.5459C68.406 90.1221 71.8312 87.6626 75.2306 85.1678C80.651 87.9479 84.9344 90.862 89.4287 94.9163L88.242 95.7738C87.5188 95.0223 82.8739 90.9124 81.3419 90.4333C81.1288 90.3666 80.4174 91.3649 80.1372 91.6426C79.452 92.3215 78.4261 93.9722 77.4863 94.1528C77.252 93.6 77.5204 92.6299 77.4346 91.6297L75.7206 92.2285C75.2366 91.7907 74.9611 91.2351 74.7477 90.6352C73.5353 91.1736 72.3271 91.7215 71.1232 92.2787C70.8222 93.173 70.5654 93.3653 69.8895 93.9934L68.2822 94.3788C67.1139 94.71 66.5196 94.5975 65.3046 94.4788C63.7979 95.3743 58.003 98.51 57.5264 99.7468Z"/><path fill="#FEFEFE" d="M70.0299 92.1366C71.3267 91.063 74.0871 89.1491 75.7613 88.93C76.5941 88.821 77.0419 89.2304 77.6953 89.7066L78.5125 90.3255L78.5619 90.7442C78.4446 90.8486 77.4254 91.6445 77.4346 91.6297L75.7206 92.2285C75.2366 91.7907 74.9611 91.2351 74.7477 90.6352C73.5353 91.1736 72.3271 91.7215 71.1232 92.2787L70.0299 92.1366Z"/><path fill="#C5C0C1" d="M77.6953 89.7066L78.5125 90.3255L78.5619 90.7442C78.4446 90.8486 77.4254 91.6445 77.4346 91.6297L75.7206 92.2285C75.2366 91.7907 74.9611 91.2351 74.7477 90.6352C75.4194 90.335 76.931 89.9289 77.6953 89.7066Z"/><path fill="#EADFE1" d="M68.2822 94.3788C68.352 93.1954 69.1448 92.7464 70.0299 92.1366L71.1232 92.2787C70.8222 93.173 70.5654 93.3653 69.8895 93.9934L68.2822 94.3788Z"/><path fill="#C5C0C1" d="M59.6973 100.235C63.2687 100.671 67.0236 101.714 70.6041 102.408C71.1005 103.732 71.2041 104.528 72.3534 105.182L72.192 105.31C71.0841 105.434 70.6368 104.847 69.5546 104.418C66.2529 103.11 62.8341 101.913 59.6973 100.235Z"/><path fill="#B7B3B3" d="M79.3232 103.55C80.5519 103.587 81.2564 103.745 82.1493 102.949L82.1504 102.877C82.2157 99.7456 84.6516 102.018 86.3046 100.421C86.3795 99.7865 86.3762 99.5524 86.3327 98.9132C87.0474 98.2535 86.9449 98.433 88.0193 98.2456C86.8249 100.954 86.0961 102.326 83.1034 103.749C82.1999 104.178 81.019 103.813 80.5358 104.048C77.8342 105.367 76.6034 106.235 73.333 104.795C73.2341 104.752 73.1367 104.705 73.041 104.654C74.9265 102.755 75.0115 107.18 79.3232 103.55Z"/><path fill="#B7B3B3" d="M71.1232 92.2787C72.3271 91.7215 73.5353 91.1736 74.7477 90.6352C74.9611 91.2351 75.2366 91.7907 75.7206 92.2285C73.3884 92.6381 72.5183 93.734 69.8895 93.9934C70.5654 93.3653 70.8222 93.173 71.1232 92.2787Z"/><path fill="#A9A6A7" d="M89.4287 94.9163C90.2055 95.478 90.9854 95.912 91.3205 96.7976C91.3158 97.8942 90.346 98.2509 89.3477 98.221C89.5262 97.2052 88.8232 96.5146 88.242 95.7738L89.4287 94.9163Z"/><path fill="#6F6E6F" d="M73.4249 93.9601L73.6949 94.5018C73.4798 95.7612 72.6984 96.4168 71.7202 97.1428C71.1744 96.5197 71.2278 96.3891 71.3067 95.6509C71.7938 94.8528 72.6192 94.4528 73.4249 93.9601Z"/><path fill="#FEFEFE" d="M99.0602 30.2838C104.26 33.3241 109.739 38.4495 113.111 43.4535C113.5 44.0302 114.452 45.3705 114.632 45.9506C115.035 46.7198 115.45 47.1412 115.258 47.964C114.948 49.2976 111.875 51.3501 110.754 51.9278C108.564 53.3762 106.355 54.7964 104.128 56.1883C104.103 57.6013 103.843 65.1404 104.272 65.982L104.731 66.2572L106.662 66.3799C105.936 66.4883 103.003 66.9147 102.919 67.3961C102.626 69.0895 102.998 71.6579 102.722 73.5499C102.684 77.2228 103.58 83.7982 101.598 87.1096L100.823 86.9296L100.69 86.5161C100.094 86.1032 100.3 86.2202 99.4746 86.1865L100.172 85.8018C92.5919 84.9019 81.6258 84.6416 75.3272 79.0261C74.9987 78.7332 75.0036 77.3626 74.9943 76.8741C75.0134 75.5573 75.065 74.1475 75.0208 72.8338C74.607 60.5501 74.9809 48.2915 75.2462 36.0058C82.0811 35.9748 94.4469 36.1233 101.762 36.1274C101.897 36.2506 102.014 36.3572 102.112 36.4469L102.776 35.5378C101.821 33.519 100.315 32.5156 98.594 31.1326L99.0602 30.2838Z"/><path fill="#C5C0C1" d="M99.0602 30.2838C104.26 33.3241 109.739 38.4495 113.111 43.4535C113.5 44.0302 114.452 45.3705 114.632 45.9506C115.035 46.7198 115.45 47.1412 115.258 47.964C114.948 49.2976 111.875 51.3501 110.754 51.9278C109.502 52.0852 109.435 52.2177 108.487 51.6905C107.509 52.1292 106.215 52.7838 105.271 53.1647C105.075 53.5134 105.071 53.4346 104.661 53.6219C104.232 53.1182 104.509 43.2877 104.528 41.7599L104.361 36.3321C103.835 36.0626 103.307 35.7978 102.776 35.5378C101.821 33.519 100.315 32.5156 98.594 31.1326L99.0602 30.2838Z"/><path fill="#FEFEFE" d="M104.855 38.0498C106.554 39.6407 111.383 44.0815 111.937 46.1655C111.88 47.1044 111.503 47.5726 110.784 48.1582C108.735 49.8262 107.132 51.2874 105.271 53.1647C105.075 53.5134 105.071 53.4346 104.661 53.6219C104.232 53.1182 104.509 43.2877 104.528 41.7599L104.855 38.0498Z"/><defs><linearGradient id="gradient_4" gradientUnits="userSpaceOnUse" x1="103.94315" y1="39.916378" x2="108.94635" y2="37.002373"><stop offset="0" stop-color="#33343B"/><stop offset="1" stop-color="#4E5554"/></linearGradient></defs><path fill="url(#gradient_4)" d="M99.0602 30.2838C104.26 33.3241 109.739 38.4495 113.111 43.4535C113.5 44.0302 114.452 45.3705 114.632 45.9506C114.259 46.4348 113.995 46.6871 113.936 47.2887C109.819 42.6714 110.038 40.8702 104.361 36.3321C103.835 36.0626 103.307 35.7978 102.776 35.5378C101.821 33.519 100.315 32.5156 98.594 31.1326L99.0602 30.2838Z"/><path fill="#33393C" d="M114.632 45.9506C115.035 46.7198 115.45 47.1412 115.258 47.964C114.948 49.2976 111.875 51.3501 110.754 51.9278C109.502 52.0852 109.435 52.2177 108.487 51.6905C110.922 50.1717 111.971 49.3465 113.936 47.2887C113.995 46.6871 114.259 46.4348 114.632 45.9506Z"/><defs><linearGradient id="gradient_5" gradientUnits="userSpaceOnUse" x1="108.28414" y1="51.407291" x2="102.03251" y2="51.21196"><stop offset="0" stop-color="#485153"/><stop offset="1" stop-color="#646265"/></linearGradient></defs><path fill="url(#gradient_5)" d="M102.776 35.5378C103.307 35.7978 103.835 36.0626 104.361 36.3321L104.528 41.7599C104.509 43.2877 104.232 53.1182 104.661 53.6219C105.071 53.4346 105.075 53.5134 105.271 53.1647C106.215 52.7838 107.509 52.1292 108.487 51.6905C109.435 52.2177 109.502 52.0852 110.754 51.9278C108.564 53.3762 106.355 54.7964 104.128 56.1883C104.103 57.6013 103.843 65.1404 104.272 65.982L104.731 66.2572L106.662 66.3799C105.936 66.4883 103.003 66.9147 102.919 67.3961C102.626 69.0895 102.998 71.6579 102.722 73.5499C102.414 69.0858 102.249 64.613 102.229 60.1384C102.294 55.499 102.255 50.8588 102.112 46.2212C102.044 43.5213 101.852 39.0478 102.112 36.4469L102.776 35.5378Z"/><path fill="#CCB8B9" d="M100.172 85.8018C100.806 81.9938 101.361 80.5852 101.58 76.2288C101.827 71.308 101.666 64.9335 102.229 60.1384C102.249 64.613 102.414 69.0858 102.722 73.5499C102.684 77.2228 103.58 83.7982 101.598 87.1096L100.823 86.9296L100.69 86.5161C100.094 86.1032 100.3 86.2202 99.4746 86.1865L100.172 85.8018Z"/><path fill="#313031" d="M85.3271 45.7266C83.7209 45.7299 82.219 45.8892 80.8972 44.9497C79.3618 42.302 84.3871 39.8854 86.2826 38.8084C88.7679 37.3963 91.732 40.475 94.5049 40.1482C96.0865 39.9618 97.0575 42.9791 96.5888 44.0793C95.6827 46.2058 92.1862 45.7917 90.3301 45.7338C90.3678 50.2657 90.9342 79.4566 89.971 81.6302C88.8261 82.5164 86.994 82.2761 85.9457 81.2521C85.631 80.9447 85.4555 79.4305 85.3843 78.9382C84.5703 77.9597 85.5204 69.01 85.0653 68.3511C84.9605 68.8125 84.8435 69.2322 84.6093 69.6458L83.8979 70.9374L83.9391 72.2587C82.4839 71.9445 82.4289 72.3095 81.5702 73.4646C81.1247 74.1652 80.9646 74.2889 80.3073 74.8015L79.9905 74.4214C77.0699 73.7358 77.7438 72.3634 77.8387 69.7593L77.8203 68.7292C77.4625 66.2541 77.962 59.1156 77.6309 56.148C77.7758 55.8889 77.9002 55.6662 78.0043 55.4801L78.3223 55.1932C78.871 54.7429 80.4075 53.9831 81.1946 53.89L81.4809 53.2943C81.6512 52.0286 81.7907 49.635 83.3997 49.5775C84.1109 50.0244 84.2431 50.7013 84.5155 51.4957C85.7631 50.7432 85.0595 47.3814 85.3271 45.7266Z"/><path fill="#EADFE1" d="M85.3271 45.7266C85.529 47.2377 85.8835 58.1268 85.5994 59.4738C84.1841 59.783 83.1971 60.9434 83.7302 62.4265C84.3342 64.1443 84.3394 64.6867 83.8611 66.4535L84.0105 67.4731L84.6093 69.6458L83.8979 70.9374L83.9391 72.2587C82.4839 71.9445 82.4289 72.3095 81.5702 73.4646C81.1247 74.1652 80.9646 74.2889 80.3073 74.8015L79.9905 74.4214C77.0699 73.7358 77.7438 72.3634 77.8387 69.7593L77.8203 68.7292C77.4625 66.2541 77.962 59.1156 77.6309 56.148C77.7758 55.8889 77.9002 55.6662 78.0043 55.4801L78.3223 55.1932C78.871 54.7429 80.4075 53.9831 81.1946 53.89L81.4809 53.2943C81.6512 52.0286 81.7907 49.635 83.3997 49.5775C84.1109 50.0244 84.2431 50.7013 84.5155 51.4957C85.7631 50.7432 85.0595 47.3814 85.3271 45.7266Z"/><path fill="#6F6E6F" d="M78.0043 55.4801L78.3223 55.1932C79.806 56.182 80.3882 56.571 81.392 58.0447C80.335 58.8519 79.6387 59.3829 78.4885 60.0396C79.3439 60.7022 80.2533 61.2819 80.6735 62.2729C80.7563 63.9387 79.4076 63.3374 79.0893 64.7255C79.7311 65.6343 80.861 66.9579 81.0221 67.9648C80.5498 69.1585 78.843 69.1985 77.8203 68.7292C77.4625 66.2541 77.962 59.1156 77.6309 56.148C77.7758 55.8889 77.9002 55.6662 78.0043 55.4801Z"/><path fill="#6F6E6F" d="M81.4809 53.2943C81.6512 52.0286 81.7907 49.635 83.3997 49.5775C84.1109 50.0244 84.2431 50.7013 84.5155 51.4957C84.6096 54.244 84.3422 54.5984 83.2047 57.1395C83.1755 57.2045 83.3824 57.6008 83.2447 58.0206L82.8896 57.5795C82.7531 57.1879 81.2964 56.4221 80.7667 56.0313C80.5939 54.9456 80.753 55.0322 81.1946 53.89L81.4809 53.2943Z"/><path fill="#6F6E6F" d="M77.8387 69.7593C81.3825 70.4361 80.3023 71.3797 81.5702 73.4646C81.1247 74.1652 80.9646 74.2889 80.3073 74.8015L79.9905 74.4214C77.0699 73.7358 77.7438 72.3634 77.8387 69.7593Z"/><path fill="#6F6E6F" d="M83.8611 66.4535C82.4129 66.8272 81.2256 66.8191 80.507 65.3057C80.5974 63.5085 82.2807 63.0165 83.7302 62.4265C84.3342 64.1443 84.3394 64.6867 83.8611 66.4535Z"/><path fill="#6F6E6F" d="M83.8979 70.9374C82.5163 71.2224 81.3493 71.2794 80.7933 69.7737C80.9908 68.3222 82.6311 67.3101 84.0105 67.4731L84.6093 69.6458L83.8979 70.9374Z"/><path fill="#4C4E51" d="M82.8896 57.5795L83.2447 58.0206C82.894 59.3854 83.2983 60.3665 83.1933 61.6407C82.3459 61.9679 81.6244 61.6705 80.9863 61.08C80.2907 59.3042 81.5911 58.6191 82.8896 57.5795Z"/><path fill="#ECEAED" d="M83.7302 62.4265C83.1971 60.9434 84.1841 59.783 85.5994 59.4738C85.5954 62.2994 85.8661 77.3762 85.3843 78.9382C84.5703 77.9597 85.5204 69.01 85.0653 68.3511C84.9605 68.8125 84.8435 69.2322 84.6093 69.6458L84.0105 67.4731L83.8611 66.4535C84.3394 64.6867 84.3342 64.1443 83.7302 62.4265Z"/><defs><linearGradient id="gradient_6" gradientUnits="userSpaceOnUse" x1="94.169678" y1="61.734386" x2="98.744484" y2="60.988861"><stop offset="0" stop-color="#4B4E52"/><stop offset="1" stop-color="#6E6C6A"/></linearGradient></defs><path fill="url(#gradient_6)" d="M94.8438 47.0258C95.6139 46.9887 96.3697 46.9403 97.1409 46.9675C97.6566 47.5997 98.1013 48.3643 98.1423 49.2033C98.4582 55.6632 98.2294 62.1778 98.437 68.6525C98.4731 69.7793 97.5762 69.5169 97.4426 70.7567C98.358 72.3213 99.8724 74.8994 97.6284 76.1796C97.2846 76.3741 96.9346 76.5573 96.5787 76.7289L96.0433 77.1323L95.1316 76.7802L95.1872 76.4842C94.7063 76.0011 93.7912 76.1896 92.8827 76.1691C92.3065 72.7033 91.5665 55.9245 92.9409 53.4562L92.8449 52.0123C92.0895 51.6478 92.0936 50.0615 92.3224 49.3326C92.7083 48.1026 93.1483 48.0498 94.1616 47.5077L94.8438 47.0258Z"/><path fill="#848284" d="M92.9409 53.4562C93.3094 53.598 94.4617 53.9867 94.6689 54.2244C95.069 55.8491 95.2437 74.6208 94.7871 75.7784C94.1541 75.9171 93.5192 76.0473 92.8827 76.1691C92.3065 72.7033 91.5665 55.9245 92.9409 53.4562Z"/><path fill="#4C4E51" d="M94.6689 54.2244C95.069 55.8491 95.2437 74.6208 94.7871 75.7784L94.2707 75.609C94.2087 75.4678 94.0666 75.1113 94.0624 74.9141C93.9226 68.2913 93.7306 61.4504 94.1687 54.8475C94.3704 54.5962 94.5371 54.3885 94.6689 54.2244Z"/><path fill="#B7B3B3" d="M94.8438 47.0258C95.6139 46.9887 96.3697 46.9403 97.1409 46.9675C95.9283 47.7258 96.0013 49.6409 96.001 51.0685C95.9993 59.2336 96.3486 67.1937 96.0115 75.3515C96.028 76.0793 95.9512 76.2068 96.5787 76.7289L96.0433 77.1323L95.1316 76.7802L95.1872 76.4842C94.7063 76.0011 93.7912 76.1896 92.8827 76.1691C93.5192 76.0473 94.1541 75.9171 94.7871 75.7784C95.2437 74.6208 95.069 55.8491 94.6689 54.2244C94.4617 53.9867 93.3094 53.598 92.9409 53.4562L92.8449 52.0123C92.0895 51.6478 92.0936 50.0615 92.3224 49.3326C92.7083 48.1026 93.1483 48.0498 94.1616 47.5077L94.8438 47.0258Z"/><path fill="#949293" d="M92.8449 52.0123C92.0895 51.6478 92.0936 50.0615 92.3224 49.3326C92.7083 48.1026 93.1483 48.0498 94.1616 47.5077C94.0448 48.9778 93.8451 51.2298 94.0326 52.6584L92.8449 52.0123Z"/><path fill="#4C4E51" d="M94.8438 47.0258C94.999 48.6598 95.2105 50.629 94.8744 52.2332L94.4681 52.6635L94.0326 52.6584C93.8451 51.2298 94.0448 48.9778 94.1616 47.5077L94.8438 47.0258Z"/><path fill="#A9A6A7" d="M97.4426 70.7567C98.358 72.3213 99.8724 74.8994 97.6284 76.1796C97.2846 76.3741 96.9346 76.5573 96.5787 76.7289C95.9512 76.2068 96.028 76.0793 96.0115 75.3515L96.5389 75.3529C97.4671 74.5602 97.2641 72.3045 97.4426 70.7567Z"/><path fill="#848284" d="M78.0043 55.4801C78.2565 53.191 76.4921 48.9211 78.2151 47.16L78.8507 47.1736C80.4313 48.3557 79.3939 50.2079 81.4809 53.2943L81.1946 53.89C80.4075 53.9831 78.871 54.7429 78.3223 55.1932L78.0043 55.4801Z"/><path fill="#A9A6A7" d="M95.1316 76.7802L96.0433 77.1323C98.1784 78.5196 98.1783 81.9974 96.1238 83.1127C92.7957 82.7409 93.3747 78.7672 95.1316 76.7802Z"/><path fill="#848284" d="M80.3073 74.8015C80.4701 75.9118 80.5351 75.6776 81.5088 76.5932C81.1186 77.6191 82.1103 78.8601 81.5764 80.0385C80.0633 80.9214 76.5679 78.3569 80.3073 74.8015Z"/><path fill="#6F6E6F" d="M81.5702 73.4646C82.4289 72.3095 82.4839 71.9445 83.9391 72.2587C84.0658 74.2702 84.5958 77.0305 81.5088 76.5932C80.5351 75.6776 80.4701 75.9118 80.3073 74.8015C80.9646 74.2889 81.1247 74.1652 81.5702 73.4646Z"/><defs><linearGradient id="gradient_7" gradientUnits="userSpaceOnUse" x1="97.217194" y1="30.571077" x2="50.307701" y2="90.481407"><stop offset="0" stop-color="#7F7777"/><stop offset="1" stop-color="#969294"/></linearGradient></defs><path fill="url(#gradient_7)" d="M52.5326 28.6376C54.5885 27.0161 61.5272 24.679 64.2126 24.0101C65.0411 24.2869 64.8929 24.3625 65.4384 25.2026C67.1307 27.0712 67.4503 31.632 68.2238 33.8831C69.9697 33.5827 77.8706 33.8595 79.6701 34.0771L82.08 26.9015L83.3446 23.7601L87.3631 25.0275C90.536 25.8923 96.695 27.9614 99.0602 30.2838L98.594 31.1326C100.315 32.5156 101.821 33.519 102.776 35.5378L102.112 36.4469C102.014 36.3572 101.897 36.2506 101.762 36.1274C94.4469 36.1233 82.0811 35.9748 75.2462 36.0058C74.9809 48.2915 74.607 60.5501 75.0208 72.8338C75.065 74.1475 75.0134 75.5573 74.9943 76.8741C75.0036 77.3626 74.9987 78.7332 75.3272 79.0261C81.6258 84.6416 92.5919 84.9019 100.172 85.8018L99.4746 86.1865C100.3 86.2202 100.094 86.1032 100.69 86.5161L100.823 86.9296L101.598 87.1096L101.327 88.0431L100.933 88.9293C99.7896 88.044 93.2941 88.5985 91.7012 88.7484C85.4113 88.6068 78.8303 86.165 73.6355 82.6749C72.3844 83.2754 71.1327 84.1824 69.7418 84.7774C64.1766 87.1579 58.8034 88.7038 52.7671 88.7572C50.7995 88.5256 47.7397 88.6443 45.5104 88.5184L46.8056 88.0632L46.6964 87.6476L47.578 87.4782C46.5691 87.2301 45.9102 87.1859 44.8776 87.0985C44.6342 86.0472 44.3996 84.9939 44.1738 83.9387L45.5587 85.1965C45.536 83.224 45.2684 79.6431 45.9708 77.945C46.6851 77.4193 46.6123 77.5761 47.612 77.5829C48.568 77.7236 49.4096 77.8536 50.3646 77.5847C53.8616 77.8259 69.4304 77.3044 71.27 78.0584C71.8697 79.5628 70.7559 80.1129 69.6437 81.0479C69.7114 81.0453 69.7791 81.0419 69.8467 81.0377C70.8876 80.9741 71.1066 80.9617 71.6876 80.3016C71.9314 78.8408 72.2396 76.9448 72.1334 75.483C71.7103 69.6566 71.7603 63.865 71.7528 58.0241L71.7961 43.7152C71.8041 41.6605 71.929 37.9259 71.6949 35.9925L68.8604 36.043C64.1162 35.6541 47.4105 36.6222 44.1663 35.6482L47.0501 33.4694C47.7137 33.8561 50.2792 33.6553 50.9096 33.3351C50.8003 33.1795 50.8187 32.9714 50.8086 32.7714C51.5001 32.1132 51.9909 31.7285 52.7511 31.1539L53.6043 29.4515L53.6851 29.3413C52.8367 29.096 53.1166 29.2748 52.5326 28.6376Z"/><path fill="#FEFEFE" d="M47.612 77.5829C48.568 77.7236 49.4096 77.8536 50.3646 77.5847C53.8616 77.8259 69.4304 77.3044 71.27 78.0584C71.8697 79.5628 70.7559 80.1129 69.6437 81.0479L68.7704 81.5689C63.918 83.0528 57.8326 85.2272 52.7939 85.7545C51.6872 85.942 50.7953 85.9052 50.1535 86.7536C48.8385 86.8538 46.0001 86.9378 44.8776 87.0985C44.6342 86.0472 44.3996 84.9939 44.1738 83.9387L45.5587 85.1965C45.536 83.224 45.2684 79.6431 45.9708 77.945C46.6851 77.4193 46.6123 77.5761 47.612 77.5829Z"/><path fill="#B7B3B3" d="M44.1738 83.9387L45.5587 85.1965C48.0874 85.6631 50.3084 85.5487 52.7939 85.7545C51.6872 85.942 50.7953 85.9052 50.1535 86.7536C48.8385 86.8538 46.0001 86.9378 44.8776 87.0985C44.6342 86.0472 44.3996 84.9939 44.1738 83.9387Z"/><path fill="#FEFEFE" d="M83.3446 23.7601L87.3631 25.0275C90.536 25.8923 96.695 27.9614 99.0602 30.2838L98.594 31.1326C96.9902 31.0335 97.0481 31.2161 95.5155 30.598C96.5616 31.4914 97.5208 32.2695 98.4245 33.3183C96.2733 33.268 83.3414 33.4823 82.6834 33.0244C81.4515 33.7121 80.829 34.3528 79.6701 34.0771L82.08 26.9015L83.3446 23.7601Z"/><path fill="#4C4E51" d="M83.3446 23.7601L87.3631 25.0275C90.536 25.8923 96.695 27.9614 99.0602 30.2838L98.594 31.1326C96.9902 31.0335 97.0481 31.2161 95.5155 30.598C92.5917 29.6189 87.9981 27.4372 84.9416 26.172C83.9246 28.8524 83.4633 30.3449 82.6834 33.0244C81.4515 33.7121 80.829 34.3528 79.6701 34.0771L82.08 26.9015L83.3446 23.7601Z"/><path fill="#313031" d="M83.3446 23.7601L87.3631 25.0275C85.205 25.7726 84.908 26.1516 82.08 26.9015L83.3446 23.7601Z"/><path fill="#EADFE1" d="M52.5326 28.6376C54.5885 27.0161 61.5272 24.679 64.2126 24.0101C65.0411 24.2869 64.8929 24.3625 65.4384 25.2026C67.1307 27.0712 67.4503 31.632 68.2238 33.8831C67.3403 34.3818 67.0258 34.0123 66.3429 33.5059C65.9297 33.5119 65.2461 33.3953 64.8118 33.3348C61.3157 33.1035 54.2859 33.0958 50.9096 33.3351C50.8003 33.1795 50.8187 32.9714 50.8086 32.7714C51.5001 32.1132 51.9909 31.7285 52.7511 31.1539L53.6043 29.4515L53.6851 29.3413C52.8367 29.096 53.1166 29.2748 52.5326 28.6376Z"/><path fill="#FEFEFE" d="M62.2269 26.859C64.0696 27.5119 64.1929 31.4448 64.8118 33.3348C61.3157 33.1035 54.2859 33.0958 50.9096 33.3351C50.8003 33.1795 50.8187 32.9714 50.8086 32.7714C51.5001 32.1132 51.9909 31.7285 52.7511 31.1539C55.3627 30.3079 59.8853 28.1959 62.2269 26.859Z"/><path fill="#313031" d="M52.5326 28.6376C54.5885 27.0161 61.5272 24.679 64.2126 24.0101C65.0411 24.2869 64.8929 24.3625 65.4384 25.2026C64.9702 25.4789 64.8826 25.5536 64.3297 25.5409C64.2412 25.7832 63.9678 25.9254 63.7659 26.0714L62.3779 26.6C59.0676 25.5651 56.254 28.7277 53.6851 29.3413C52.8367 29.096 53.1166 29.2748 52.5326 28.6376Z"/><path fill="#4C4E51" d="M65.4384 25.2026C67.1307 27.0712 67.4503 31.632 68.2238 33.8831C67.3403 34.3818 67.0258 34.0123 66.3429 33.5059C65.8545 31.8163 64.9421 27.132 63.7659 26.0714C63.9678 25.9254 64.2412 25.7832 64.3297 25.5409C64.8826 25.5536 64.9702 25.4789 65.4384 25.2026Z"/><defs><linearGradient id="gradient_8" gradientUnits="userSpaceOnUse" x1="86.801216" y1="85.679642" x2="88.420525" y2="81.532921"><stop offset="0" stop-color="#B0AFAE"/><stop offset="1" stop-color="#DCC9C5"/></linearGradient></defs><path fill="url(#gradient_8)" d="M74.2551 80.4665C74.5949 79.2892 74.7833 78.0808 74.9943 76.8741C75.0036 77.3626 74.9987 78.7332 75.3272 79.0261C81.6258 84.6416 92.5919 84.9019 100.172 85.8018L99.4746 86.1865C100.3 86.2202 100.094 86.1032 100.69 86.5161L100.823 86.9296C92.3855 87.24 81.2291 85.5536 74.2551 80.4665Z"/><path fill="#A9A6A7" d="M52.7939 85.7545C57.8326 85.2272 63.918 83.0528 68.7704 81.5689C65.6749 86.0944 55.2532 87.0309 50.1535 86.7536C50.7953 85.9052 51.6872 85.942 52.7939 85.7545Z"/><path fill="#C5C0C1" d="M41.9629 55.2397C39.4815 53.267 31.3959 49.7173 33.3937 46.2085C37.4711 39.0475 44.8506 31.8086 52.5326 28.6376C53.1166 29.2748 52.8367 29.096 53.6851 29.3413L53.6043 29.4515L52.7511 31.1539C51.9909 31.7285 51.5001 32.1132 50.8086 32.7714C50.8187 32.9714 50.8003 33.1795 50.9096 33.3351C50.2792 33.6553 47.7137 33.8561 47.0501 33.4694L44.1663 35.6482C47.4105 36.6222 64.1162 35.6541 68.8604 36.043C62.1106 36.5508 52.8651 36.2861 45.9796 36.2804C45.5084 37.4929 45.5174 61.0524 45.9138 62.9548C46.1129 63.2167 46.3225 63.5323 46.5791 63.7262C47.1959 61.7435 48.6814 56.7448 49.7302 55.2648L49.846 56.0491C50.9268 53.5214 47.9397 52.9485 48.4221 50.5149C49.0493 49.8726 48.7928 50.0608 49.7608 49.8369C49.4837 50.8905 48.988 52.0911 50.082 52.7375C50.7297 53.7505 50.7642 54.3211 51.8086 54.8846C53.6615 54.9401 53.5544 51.9336 53.6929 50.4885C54.5753 49.4322 54.7985 49.1907 55.9367 48.4264C56.0977 50.745 55.8518 51.9116 57.3466 53.5847L57.6847 54.0843L60.5518 53.9315C61.3759 53.6906 61.1033 53.6399 61.7565 53.9846C62.4822 55.4411 62.2653 57.0295 63.0318 57.7891L63.781 57.5201C63.9763 57.0702 64.1132 56.7308 64.2691 56.266C65.3699 56.9094 65.8082 58.5294 66.2357 59.7167C65.9003 60.3089 66.0671 60.1856 65.5171 60.5249C64.6081 59.3979 64.688 59.187 63.2204 59.2334C65.799 60.1225 66.2093 64.4671 66.484 66.8295L66.5126 66.91C65.4926 67.0076 65.7709 66.8337 65.1728 67.4819C65.0076 68.1885 65.071 68.9943 65.5593 69.5685L65.1633 70.026C64.5474 70.5796 63.8524 71.2371 63.2265 71.76L61.3003 72.6697C60.4043 73.2206 58.4379 73.0163 57.3956 72.8876L56.9376 72.3318C54.7457 72.1278 54.1588 71.8222 52.1829 70.9317L51.5215 70.637C51.1513 70.4298 49.0548 68.2659 48.5437 67.7757L47.4656 70.254C48.0476 70.7579 48.8192 71.7941 49.1731 72.0045C50.614 73.0691 50.2932 73.796 50.5542 75.4181L51.0471 75.7475L51.205 76.3507C51.7442 76.6267 52.0129 76.5357 52.6212 76.4433L52.7981 77.0081L52.5085 77.3597C51.7926 77.4224 51.0779 77.4974 50.3646 77.5847C49.4096 77.8536 48.568 77.7236 47.612 77.5829C46.6123 77.5761 46.6851 77.4193 45.9708 77.945C45.2684 79.6431 45.536 83.224 45.5587 85.1965L44.1738 83.9387C43.8957 80.5887 43.6695 69.8879 44.1363 66.5891C42.4353 63.6359 42.6321 57.4638 43.1439 54.1383C42.8616 54.4201 42.2632 55.0528 41.9629 55.2397Z"/><path fill="#FEFEFE" d="M41.9629 55.2397C39.4815 53.267 31.3959 49.7173 33.3937 46.2085C37.4711 39.0475 44.8506 31.8086 52.5326 28.6376C53.1166 29.2748 52.8367 29.096 53.6851 29.3413L53.6043 29.4515L52.7511 31.1539C51.9909 31.7285 51.5001 32.1132 50.8086 32.7714C50.8187 32.9714 50.8003 33.1795 50.9096 33.3351C50.2792 33.6553 47.7137 33.8561 47.0501 33.4694L44.1663 35.6482L43.7239 36.0284C43.3587 36.3595 42.3355 37.2069 42.1755 37.5865C42.6575 38.775 41.1358 50.0277 42.2692 51.9867C42.4065 52.2239 42.4105 52.2071 42.4268 52.5103L41.7794 52.9581L42.936 53.12C43.1929 53.5707 43.1957 53.6327 43.1439 54.1383C42.8616 54.4201 42.2632 55.0528 41.9629 55.2397Z"/><path fill="#33393C" d="M41.9629 55.2397C39.4815 53.267 31.3959 49.7173 33.3937 46.2085C37.4711 39.0475 44.8506 31.8086 52.5326 28.6376C53.1166 29.2748 52.8367 29.096 53.6851 29.3413L53.6043 29.4515L52.7511 31.1539C51.9909 31.7285 51.5001 32.1132 50.8086 32.7714C50.8187 32.9714 50.8003 33.1795 50.9096 33.3351C50.2792 33.6553 47.7137 33.8561 47.0501 33.4694L44.1663 35.6482L43.7239 36.0284C43.3587 36.3595 42.3355 37.2069 42.1755 37.5865C40.9793 38.7468 37.8073 41.4653 37.231 42.7049C36.7761 43.2965 35.3281 45.1069 35.0486 45.6601C34.8117 46.287 34.3643 47.1135 34.706 47.6953C35.9713 49.8497 39.7013 51.8511 41.7794 52.9581L42.936 53.12C43.1929 53.5707 43.1957 53.6327 43.1439 54.1383C42.8616 54.4201 42.2632 55.0528 41.9629 55.2397Z"/><path fill="#C5C0C1" d="M47.0501 33.4694C49.5386 31.4416 50.5188 30.2993 53.6043 29.4515L52.7511 31.1539C51.9909 31.7285 51.5001 32.1132 50.8086 32.7714C50.8187 32.9714 50.8003 33.1795 50.9096 33.3351C50.2792 33.6553 47.7137 33.8561 47.0501 33.4694Z"/><path fill="#A9A6A7" d="M42.1755 37.5865C42.6575 38.775 41.1358 50.0277 42.2692 51.9867C42.4065 52.2239 42.4105 52.2071 42.4268 52.5103L41.7794 52.9581C39.7013 51.8511 35.9713 49.8497 34.706 47.6953C34.3643 47.1135 34.8117 46.287 35.0486 45.6601C35.4096 46.5021 35.5527 46.8185 35.7286 47.7403L35.8341 47.4255L35.9642 47.4941C37.1437 47.9418 40.0429 50.2292 41.8379 51.2146C41.5657 48.2088 41.681 43.4327 41.7878 40.4009C40.5517 41.2901 39.7161 41.8534 38.6548 42.9771L37.231 42.7049C37.8073 41.4653 40.9793 38.7468 42.1755 37.5865Z"/><path fill="#B7B3B3" d="M37.231 42.7049L38.6548 42.9771C37.7809 44.6232 36.7293 46.0589 35.9642 47.4941L35.8341 47.4255L35.7286 47.7403C35.5527 46.8185 35.4096 46.5021 35.0486 45.6601C35.3281 45.1069 36.7761 43.2965 37.231 42.7049Z"/><defs><linearGradient id="gradient_9" gradientUnits="userSpaceOnUse" x1="59.355572" y1="70.133438" x2="66.165871" y2="58.20076"><stop offset="0" stop-color="#5B5B5B"/><stop offset="1" stop-color="#767676"/></linearGradient></defs><path fill="url(#gradient_9)" d="M63.0318 57.7891L63.781 57.5201C63.9763 57.0702 64.1132 56.7308 64.2691 56.266C65.3699 56.9094 65.8082 58.5294 66.2357 59.7167C65.9003 60.3089 66.0671 60.1856 65.5171 60.5249C64.6081 59.3979 64.688 59.187 63.2204 59.2334C65.799 60.1225 66.2093 64.4671 66.484 66.8295L66.5126 66.91C65.4926 67.0076 65.7709 66.8337 65.1728 67.4819C65.0076 68.1885 65.071 68.9943 65.5593 69.5685L65.1633 70.026C64.5474 70.5796 63.8524 71.2371 63.2265 71.76L61.3003 72.6697C60.4043 73.2206 58.4379 73.0163 57.3956 72.8876L56.9376 72.3318C54.7457 72.1278 54.1588 71.8222 52.1829 70.9317C53.3987 68.3854 51.2183 66.4075 54.5589 65.1966L54.4967 65.0868C57.241 64.7549 56.1565 65.4714 57.4505 65.6852L59.2847 65.0943C60.1243 65.0318 60.3052 64.5162 60.7642 63.9045C60.6766 62.7794 60.5608 63.1356 61.048 62.2032C61.136 61.8695 61.0769 60.6737 61.0678 60.2615C61.4213 59.3948 62.1343 58.1447 63.0318 57.7891Z"/><defs><linearGradient id="gradient_10" gradientUnits="userSpaceOnUse" x1="61.904404" y1="65.737694" x2="66.119972" y2="64.159592"><stop offset="0" stop-color="#878685"/><stop offset="1" stop-color="#A3A0A3"/></linearGradient></defs><path fill="url(#gradient_10)" d="M63.2204 59.2334C65.799 60.1225 66.2093 64.4671 66.484 66.8295L66.5126 66.91C65.4926 67.0076 65.7709 66.8337 65.1728 67.4819C65.0076 68.1885 65.071 68.9943 65.5593 69.5685L65.1633 70.026C64.5474 70.5796 63.8524 71.2371 63.2265 71.76C62.7066 69.6753 62.8089 61.3953 63.2204 59.2334Z"/><path fill="#848284" d="M65.1633 70.026C64.8546 69.6321 63.7225 63.4466 64.4836 62.5897C64.7766 62.9417 65.019 65.4487 65.1519 66.1672C65.7735 66.8581 65.4635 66.6722 66.484 66.8295L66.5126 66.91C65.4926 67.0076 65.7709 66.8337 65.1728 67.4819C65.0076 68.1885 65.071 68.9943 65.5593 69.5685L65.1633 70.026Z"/><path fill="#4C4E51" d="M54.4967 65.0868C57.241 64.7549 56.1565 65.4714 57.4505 65.6852C55.9324 66.4393 56.4719 68.9557 56.5456 70.5713C56.92 71.2506 56.8999 71.5746 56.9376 72.3318C54.7457 72.1278 54.1588 71.8222 52.1829 70.9317C53.3987 68.3854 51.2183 66.4075 54.5589 65.1966L54.4967 65.0868Z"/><path fill="#949293" d="M54.4967 65.0868C57.241 64.7549 56.1565 65.4714 57.4505 65.6852C55.9324 66.4393 56.4719 68.9557 56.5456 70.5713C54.0244 69.7184 55.1653 67.7263 55.2248 65.4447L54.5589 65.1966L54.4967 65.0868Z"/><path fill="#313031" d="M59.2847 65.0943C60.0292 65.9503 60.0342 71.3153 59.6046 72.5543C59.487 72.8935 57.9117 72.8763 57.3956 72.8876L56.9376 72.3318C56.8999 71.5746 56.92 71.2506 56.5456 70.5713C56.4719 68.9557 55.9324 66.4393 57.4505 65.6852L59.2847 65.0943Z"/><path fill="#848284" d="M60.7642 63.9045C60.6766 62.7794 60.5608 63.1356 61.048 62.2032C61.3151 63.602 61.7353 64.0253 61.591 65.5055C61.358 67.8955 61.3565 70.2796 61.3003 72.6697C60.4043 73.2206 58.4379 73.0163 57.3956 72.8876C57.9117 72.8763 59.487 72.8935 59.6046 72.5543C60.0342 71.3153 60.0292 65.9503 59.2847 65.0943C60.1243 65.0318 60.3052 64.5162 60.7642 63.9045Z"/><defs><linearGradient id="gradient_11" gradientUnits="userSpaceOnUse" x1="48.835182" y1="62.680912" x2="53.686646" y2="64.351288"><stop offset="0" stop-color="#636262"/><stop offset="1" stop-color="#919090"/></linearGradient></defs><path fill="url(#gradient_11)" d="M47.4656 70.254L47.0379 70.1459C46.6441 69.3082 49.4134 56.1337 53.0321 56.3412C55.1693 57.8597 53.1134 63.4342 54.4967 65.0868L54.5589 65.1966C51.2183 66.4075 53.3987 68.3854 52.1829 70.9317L51.5215 70.637C51.1513 70.4298 49.0548 68.2659 48.5437 67.7757L47.4656 70.254Z"/><path fill="#949293" d="M50.4896 61.1315C50.6031 61.2488 50.8151 61.5985 50.9138 61.7502C50.9672 63.9607 50.6145 65.4474 49.2505 67.2498L48.9734 66.8404C48.6894 65.2858 49.6979 62.471 50.4896 61.1315Z"/><defs><linearGradient id="gradient_12" gradientUnits="userSpaceOnUse" x1="46.881062" y1="42.257893" x2="39.581272" y2="47.186321"><stop offset="0" stop-color="#6A6763"/><stop offset="1" stop-color="#7F7F84"/></linearGradient></defs><path fill="url(#gradient_12)" d="M42.1755 37.5865C42.3355 37.2069 43.3587 36.3595 43.7239 36.0284C44.1081 37.1365 44.1303 38.1067 44.1905 39.261C44.6481 48.0339 43.5351 56.7926 44.3744 65.5466C44.4003 65.8168 44.2371 66.3276 44.1363 66.5891C42.4353 63.6359 42.6321 57.4638 43.1439 54.1383C43.1957 53.6327 43.1929 53.5707 42.936 53.12L41.7794 52.9581L42.4268 52.5103C42.4105 52.2071 42.4065 52.2239 42.2692 51.9867C41.1358 50.0277 42.6575 38.775 42.1755 37.5865Z"/><path fill="#848284" d="M60.5518 53.9315C61.3759 53.6906 61.1033 53.6399 61.7565 53.9846C62.4822 55.4411 62.2653 57.0295 63.0318 57.7891C62.1343 58.1447 61.4213 59.3948 61.0678 60.2615C60.9237 60.0314 60.2923 59.4059 60.067 59.1729C58.9876 58.8337 59.3433 58.9013 58.1871 59.1865C57.3406 57.7986 58.0618 58.1318 57.5833 56.4246L57.5586 55.6387C57.5169 55.23 57.6307 54.5209 57.6847 54.0843L60.5518 53.9315Z"/><path fill="#ECEAED" d="M46.5791 63.7262C46.0285 65.0019 46.0847 66.0762 45.387 66.8235L45.0907 66.4232C44.638 63.7724 44.935 38.485 45.5526 36.4961L45.9796 36.2804C45.5084 37.4929 45.5174 61.0524 45.9138 62.9548C46.1129 63.2167 46.3225 63.5323 46.5791 63.7262Z"/><path fill="#A9A6A7" d="M50.5542 75.4181L51.0471 75.7475L51.205 76.3507C51.7442 76.6267 52.0129 76.5357 52.6212 76.4433L52.7981 77.0081L52.5085 77.3597C51.7926 77.4224 51.0779 77.4974 50.3646 77.5847C49.4096 77.8536 48.568 77.7236 47.612 77.5829C47.004 77.0049 47.1238 77.2631 46.9498 76.5066L47.3272 75.9544C48.5477 76.4293 49.5053 76.023 50.5542 75.4181Z"/><path fill="#4C4E51" d="M49.1731 72.0045C50.614 73.0691 50.2932 73.796 50.5542 75.4181C49.5053 76.023 48.5477 76.4293 47.3272 75.9544C48.2808 74.438 48.5543 73.6511 49.1731 72.0045Z"/><path fill="#949293" d="M58.1871 59.1865C59.3433 58.9013 58.9876 58.8337 60.067 59.1729C60.2923 59.4059 60.9237 60.0314 61.0678 60.2615C61.0769 60.6737 61.136 61.8695 61.048 62.2032C60.5608 63.1356 60.6766 62.7794 60.7642 63.9045C60.6212 63.4399 58.6217 60.0098 58.1871 59.1865Z"/><path fill="#EADFE1" d="M57.5833 56.4246C57.6238 56.8513 57.5727 56.9124 57.3537 57.2864C56.4925 57.4912 55.3682 57.0156 55.5057 55.9928C56.298 55.543 56.6391 55.6155 57.5586 55.6387L57.5833 56.4246Z"/><path fill="#ECEAED" d="M55.8973 60.8063C56.8002 61.0075 56.5068 60.8311 57.1122 61.4822C57.3949 62.3969 57.0756 63.3016 56.8534 64.2485L56.3992 64.105C55.603 63.0463 55.7453 62.0489 55.8973 60.8063Z"/><path fill="#B7B3B3" d="M71.6949 35.9925C71.929 37.9259 71.8041 41.6605 71.7961 43.7152L71.7528 58.0241C71.7603 63.865 71.7103 69.6566 72.1334 75.483C72.2396 76.9448 71.9314 78.8408 71.6876 80.3016C71.1066 80.9617 70.8876 80.9741 69.8467 81.0377C69.7791 81.0419 69.7114 81.0453 69.6437 81.0479C70.7559 80.1129 71.8697 79.5628 71.27 78.0584C69.4304 77.3044 53.8616 77.8259 50.3646 77.5847C51.0779 77.4974 51.7926 77.4224 52.5085 77.3597L52.7981 77.0081L52.6212 76.4433C52.0129 76.5357 51.7442 76.6267 51.205 76.3507L51.0471 75.7475L50.5542 75.4181C50.2932 73.796 50.614 73.0691 49.1731 72.0045C48.8192 71.7941 48.0476 70.7579 47.4656 70.254L48.5437 67.7757C49.0548 68.2659 51.1513 70.4298 51.5215 70.637L52.1829 70.9317C54.1588 71.8222 54.7457 72.1278 56.9376 72.3318L57.3956 72.8876C58.4379 73.0163 60.4043 73.2206 61.3003 72.6697L63.2265 71.76C63.8524 71.2371 64.5474 70.5796 65.1633 70.026L65.5593 69.5685C65.071 68.9943 65.0076 68.1885 65.1728 67.4819C65.7709 66.8337 65.4926 67.0076 66.5126 66.91C67.4967 67.399 67.8176 67.6732 68.3382 68.7243C68.8909 67.9043 68.9131 67.4118 69.0602 66.4507C70.0203 68.5395 70.7784 70.2875 71.5917 72.4351C71.3681 66.595 71.4843 59.8316 71.4854 53.9408C71.4864 48.3876 71.3657 41.4319 71.6949 35.9925Z"/><path fill="#A9A6A7" d="M48.5437 67.7757C49.0548 68.2659 51.1513 70.4298 51.5215 70.637L50.8791 70.94C50.8525 71.7174 51.4377 72.2245 52.0411 72.8688C52.5535 73.4081 53.0724 73.9413 53.5975 74.4683C52.3528 74.8753 51.7617 74.8326 51.0471 75.7475L50.5542 75.4181C50.2932 73.796 50.614 73.0691 49.1731 72.0045C48.8192 71.7941 48.0476 70.7579 47.4656 70.254L48.5437 67.7757Z"/><path fill="#6F6E6F" d="M65.5593 69.5685C65.071 68.9943 65.0076 68.1885 65.1728 67.4819C65.7709 66.8337 65.4926 67.0076 66.5126 66.91C67.4967 67.399 67.8176 67.6732 68.3382 68.7243C69.0085 70.6224 71.3919 74.6043 70.0892 76.1191L69.6317 76.1538C68.3782 75.0661 68.6326 69.5996 66.682 68.4215C65.9422 68.6209 66.0471 68.7725 65.5593 69.5685Z"/><path fill="#6F6E6F" d="M53.5975 74.4683L54.2253 75.1821L54.1617 75.6403C53.5697 76.0348 53.2778 76.1607 52.6212 76.4433C52.0129 76.5357 51.7442 76.6267 51.205 76.3507L51.0471 75.7475C51.7617 74.8326 52.3528 74.8753 53.5975 74.4683Z"/><path fill="#848284" d="M63.5456 73.1891L63.7916 73.3077C64.0379 74.0481 64.4278 75.316 64.0384 75.9593C62.9257 76.4144 60.0787 75.9257 58.7581 75.7729L58.1055 75.6288L57.7977 75.1065C59.1426 74.0206 61.5171 75.7926 63.5456 73.1891Z"/><path fill="#6F6E6F" d="M65.5082 72.156C65.972 72.454 67.5199 75.5386 67.3369 76.285C65.3545 75.8208 64.2722 74.0175 65.5082 72.156Z"/><defs><linearGradient id="gradient_13" gradientUnits="userSpaceOnUse" x1="66.558411" y1="52.161335" x2="57.845955" y2="52.424675"><stop offset="0" stop-color="#969494"/><stop offset="1" stop-color="#B1B0B0"/></linearGradient></defs><path fill="url(#gradient_13)" d="M61.0518 42.3605C61.3599 42.9108 61.3822 44.0221 61.4399 44.6937C62.0341 46.1873 62.8355 47.19 63.5626 48.5391C64.7583 50.7575 66.4472 54.7654 66.981 57.2002C66.9538 58.148 66.9285 58.904 66.8167 59.8483L66.4608 59.8948L66.2357 59.7167C65.8082 58.5294 65.3699 56.9094 64.2691 56.266C64.1132 56.7308 63.9763 57.0702 63.781 57.5201L63.0318 57.7891C62.2653 57.0295 62.4822 55.4411 61.7565 53.9846C61.1033 53.6399 61.3759 53.6906 60.5518 53.9315L57.6847 54.0843L57.3466 53.5847C55.8518 51.9116 56.0977 50.745 55.9367 48.4264C56.619 47.6969 57.1652 47.2125 57.9198 46.5571L58.3015 46.1645L59.6239 45.8331C60.2722 44.3048 60.9798 44.9114 61.0518 42.3605Z"/><path fill="#EADFE1" d="M57.9198 46.5571L57.9244 46.6325C58.0245 48.4631 56.9327 49.1574 57.8682 50.3959C58.9283 50.5574 59.6576 50.5022 60.3521 51.2421L60.4073 52.2538C60.4233 52.9101 60.4507 53.2832 60.5518 53.9315L57.6847 54.0843L57.3466 53.5847C55.8518 51.9116 56.0977 50.745 55.9367 48.4264C56.619 47.6969 57.1652 47.2125 57.9198 46.5571Z"/><path fill="#C5C0C1" d="M60.4073 52.2538C60.4233 52.9101 60.4507 53.2832 60.5518 53.9315L57.6847 54.0843L57.3466 53.5847C58.917 52.1672 57.4503 51.9862 60.4073 52.2538Z"/><path fill="#A9A6A7" d="M54.2458 45.8713C55.087 44.3809 53.9859 43.7395 54.1136 42.4783C54.5546 38.1257 66.8349 40.0604 61.4399 44.6937C61.3822 44.0221 61.3599 42.9108 61.0518 42.3605C60.9798 44.9114 60.2722 44.3048 59.6239 45.8331L58.3015 46.1645L57.9198 46.5571C57.1652 47.2125 56.619 47.6969 55.9367 48.4264C54.7985 49.1907 54.5753 49.4322 53.6929 50.4885C53.5544 51.9336 53.6615 54.9401 51.8086 54.8846C50.7642 54.3211 50.7297 53.7505 50.082 52.7375C49.8017 52.0132 49.4785 51.413 49.6796 50.6635C50.3984 50.238 51.0222 50.5808 52.0128 50.8182C52.1562 50.6001 54.0085 46.4208 54.2458 45.8713Z"/><path fill="#949293" d="M56.9802 44.975C56.9432 44.4972 56.3513 43.8505 56.5391 43.4872C57.6278 41.3812 59.321 41.5261 61.0518 42.3605C60.9798 44.9114 60.2722 44.3048 59.6239 45.8331L58.3015 46.1645C57.7432 45.9685 57.371 45.4325 56.9802 44.975Z"/><path fill="#6F6E6F" d="M56.9802 44.975C57.2581 44.1029 57.5403 42.8277 58.2165 42.2884C59.2334 42.6399 59.433 44.8064 59.6239 45.8331L58.3015 46.1645C57.7432 45.9685 57.371 45.4325 56.9802 44.975Z"/><path fill="#949293" d="M66.981 57.2002C67.7813 60.3665 67.7638 63.4011 69.0602 66.4507C68.9131 67.4118 68.8909 67.9043 68.3382 68.7243C67.8176 67.6732 67.4967 67.399 66.5126 66.91L66.484 66.8295C66.2093 64.4671 65.799 60.1225 63.2204 59.2334C64.688 59.187 64.6081 59.3979 65.5171 60.5249C66.0671 60.1856 65.9003 60.3089 66.2357 59.7167L66.4608 59.8948L66.8167 59.8483C66.9285 58.904 66.9538 58.148 66.981 57.2002Z"/><path fill="#B7B3B3" d="M54.2458 45.8713C54.0085 46.4208 52.1562 50.6001 52.0128 50.8182C51.0222 50.5808 50.3984 50.238 49.6796 50.6635C49.4785 51.413 49.8017 52.0132 50.082 52.7375C48.988 52.0911 49.4837 50.8905 49.7608 49.8369C48.7928 50.0608 49.0493 49.8726 48.4221 50.5149C47.9397 52.9485 50.9268 53.5214 49.846 56.0491L49.7302 55.2648L49.6731 54.6293C49.4974 54.406 49.3317 54.175 49.1765 53.937C48.6292 53.1136 47.7877 51.6049 47.9819 50.6131C48.7057 49.326 50.6082 48.8305 51.9918 48.3231C52.7242 47.3674 53.259 46.582 54.2458 45.8713Z"/><path fill="#FEFEFE" d="M104.731 66.2572C108.306 65.6601 117.655 64.3208 120.993 65.4767C121.263 65.7405 121.482 65.886 121.547 66.2463C122.498 79.1283 118.734 92.6929 110.417 102.819C109.998 103.33 109.516 103.695 108.88 103.9C108.372 103.793 108.195 103.775 107.735 103.517L107.928 102.459L108.597 102.236L107.167 101.226L106.936 100.955C106.042 97.9402 102.582 96.7244 100.636 94.1603L99.7617 93.1892C100.41 92.4037 101.412 90.0553 101.894 89.038L101.327 88.0431L101.598 87.1096C103.58 83.7982 102.684 77.2228 102.722 73.5499C102.998 71.6579 102.626 69.0895 102.919 67.3961C103.003 66.9147 105.936 66.4883 106.662 66.3799L104.731 66.2572Z"/><defs><linearGradient id="gradient_14" gradientUnits="userSpaceOnUse" x1="119.95452" y1="89.080742" x2="108.81339" y2="78.685966"><stop offset="0" stop-color="#D2CED4"/><stop offset="1" stop-color="#F0F0EC"/></linearGradient></defs><path fill="url(#gradient_14)" d="M121.547 66.2463C122.498 79.1283 118.734 92.6929 110.417 102.819C109.998 103.33 109.516 103.695 108.88 103.9C108.372 103.793 108.195 103.775 107.735 103.517L107.928 102.459L108.597 102.236L107.167 101.226C111.095 98.8317 116.016 87.3392 117.31 82.7813C118.594 78.2543 118.769 72.0845 118.66 67.3543C117.499 67.3695 116.641 67.3161 115.482 67.2216C116.772 67.0662 118.667 66.6748 119.795 67.1728C120.487 67.8198 120.321 67.9439 120.504 69.0176C120.571 67.3368 120.464 67.332 121.547 66.2463Z"/><path fill="#030203" d="M121.547 66.2463C122.498 79.1283 118.734 92.6929 110.417 102.819C109.998 103.33 109.516 103.695 108.88 103.9C108.372 103.793 108.195 103.775 107.735 103.517L107.928 102.459L108.597 102.236C108.905 101.99 109.199 101.727 109.477 101.448C117.499 93.3814 120.514 80.0328 120.504 69.0176C120.571 67.3368 120.464 67.332 121.547 66.2463Z"/><path fill="#4C4E51" d="M104.731 66.2572C108.306 65.6601 117.655 64.3208 120.993 65.4767C121.263 65.7405 121.482 65.886 121.547 66.2463C120.464 67.332 120.571 67.3368 120.504 69.0176C120.321 67.9439 120.487 67.8198 119.795 67.1728C118.667 66.6748 116.772 67.0662 115.482 67.2216C111.619 67.1776 108.122 67.5314 104.292 67.8996C104.425 71.6512 104.485 75.4051 104.472 79.159C104.146 82.4448 103.568 86.1177 101.894 89.038L101.327 88.0431L101.598 87.1096C103.58 83.7982 102.684 77.2228 102.722 73.5499C102.998 71.6579 102.626 69.0895 102.919 67.3961C103.003 66.9147 105.936 66.4883 106.662 66.3799L104.731 66.2572Z"/><path fill="#C5C0C1" d="M101.894 89.038C103.568 86.1177 104.146 82.4448 104.472 79.159C104.57 84.2198 105.651 86.4525 102.565 90.808C102.259 91.2407 100.761 93.7055 100.636 94.1603L99.7617 93.1892C100.41 92.4037 101.412 90.0553 101.894 89.038Z"/><path fill="#4C4E51" d="M99.7617 93.1892L100.636 94.1603C102.582 96.7244 106.042 97.9402 106.936 100.955L107.167 101.226L108.597 102.236L107.928 102.459L107.735 103.517C103.185 100.7 101.641 98.7883 97.7404 95.6526C96.7551 96.4701 94.5421 98.9668 93.57 100.013L93.1838 99.5018C94.0339 98.7678 97.3835 94.6993 98.0743 93.8202C98.4174 94.0733 98.6383 94.148 98.7941 94.4931C99.0499 93.9103 99.3299 93.6578 99.7617 93.1892Z"/><path fill="#C5C0C1" d="M99.7617 93.1892L100.636 94.1603C102.582 96.7244 106.042 97.9402 106.936 100.955C104.379 99.5944 100.881 96.4897 98.7941 94.4931C99.0499 93.9103 99.3299 93.6578 99.7617 93.1892Z"/><path fill="#EADFE1" d="M9.69686 37.7578C12.1951 37.5354 14.9491 37.3789 17.3032 38.4903C17.1086 38.7997 16.5805 39.6826 16.3721 39.914C15.6817 39.6485 14.4525 39.3199 13.7047 39.095C13.2104 39.7281 13.365 39.9789 12.9451 40.5435C11.8096 40.4074 10.7624 39.8892 9.85435 40.2748L9.25015 40.0201L8.86717 40.5272L8.53261 40.0485C8.70046 39.239 8.72839 38.717 9.36457 38.1763L9.69686 37.7578Z"/><path fill="#313031" d="M9.36457 38.1763C10.6287 38.379 12.5798 38.613 13.7047 39.095C13.2104 39.7281 13.365 39.9789 12.9451 40.5435C11.8096 40.4074 10.7624 39.8892 9.85435 40.2748L9.25015 40.0201L8.86717 40.5272L8.53261 40.0485C8.70046 39.239 8.72839 38.717 9.36457 38.1763Z"/><path fill="#313031" d="M67.5242 0L69.603 0C69.4723 0.526333 68.989 2.63552 68.8322 3.01907L68.1793 3.23614C67.567 4.4913 67.825 4.63281 67.49 5.65119L67.4244 2.10224L67.5242 0Z"/></svg>